<?xml version="1.0" encoding="utf-8" standalone="no"?>
<!DOCTYPE svg PUBLIC "-//W3C//DTD SVG 1.1//EN"
  "http://www.w3.org/Graphics/SVG/1.1/DTD/svg11.dtd">
<svg xmlns:xlink="http://www.w3.org/1999/xlink" width="504pt" height="288pt" viewBox="0 0 504 288" xmlns="http://www.w3.org/2000/svg" version="1.1">
 <metadata>
  <rdf:RDF xmlns:dc="http://purl.org/dc/elements/1.1/" xmlns:cc="http://creativecommons.org/ns#" xmlns:rdf="http://www.w3.org/1999/02/22-rdf-syntax-ns#">
   <cc:Work>
    <dc:type rdf:resource="http://purl.org/dc/dcmitype/StillImage"/>
    <dc:date>2024-08-30T18:37:36.555528</dc:date>
    <dc:format>image/svg+xml</dc:format>
    <dc:creator>
     <cc:Agent>
      <dc:title>Matplotlib v3.8.4, https://matplotlib.org/</dc:title>
     </cc:Agent>
    </dc:creator>
   </cc:Work>
  </rdf:RDF>
 </metadata>
 <defs>
  <style type="text/css">*{stroke-linejoin: round; stroke-linecap: butt}</style>
 </defs>
 <g id="figure_1">
  <g id="patch_1">
   <path d="M 0 288 
L 504 288 
L 504 0 
L 0 0 
z
" style="fill: #ffffff"/>
  </g>
  <g id="axes_1">
   <g id="patch_2">
    <path d="M 44.00925 241.14 
L 493.632 241.14 
L 493.632 10.368 
L 44.00925 10.368 
z
" style="fill: #eaeaf2"/>
   </g>
   <g id="matplotlib.axis_1">
    <g id="xtick_1">
     <g id="text_1">
      <!-- none -->
      <g style="fill: #262626" transform="translate(52.956281 255.738875) scale(0.088 -0.088)">
       <defs>
        <path id="ArialMT-6e" d="M 422 0 
L 422 3319 
L 928 3319 
L 928 2847 
Q 1294 3394 1984 3394 
Q 2284 3394 2536 3286 
Q 2788 3178 2913 3003 
Q 3038 2828 3088 2588 
Q 3119 2431 3119 2041 
L 3119 0 
L 2556 0 
L 2556 2019 
Q 2556 2363 2490 2533 
Q 2425 2703 2258 2804 
Q 2091 2906 1866 2906 
Q 1506 2906 1245 2678 
Q 984 2450 984 1813 
L 984 0 
L 422 0 
z
" transform="scale(0.015625)"/>
        <path id="ArialMT-6f" d="M 213 1659 
Q 213 2581 725 3025 
Q 1153 3394 1769 3394 
Q 2453 3394 2887 2945 
Q 3322 2497 3322 1706 
Q 3322 1066 3130 698 
Q 2938 331 2570 128 
Q 2203 -75 1769 -75 
Q 1072 -75 642 372 
Q 213 819 213 1659 
z
M 791 1659 
Q 791 1022 1069 705 
Q 1347 388 1769 388 
Q 2188 388 2466 706 
Q 2744 1025 2744 1678 
Q 2744 2294 2464 2611 
Q 2184 2928 1769 2928 
Q 1347 2928 1069 2612 
Q 791 2297 791 1659 
z
" transform="scale(0.015625)"/>
        <path id="ArialMT-65" d="M 2694 1069 
L 3275 997 
Q 3138 488 2766 206 
Q 2394 -75 1816 -75 
Q 1088 -75 661 373 
Q 234 822 234 1631 
Q 234 2469 665 2931 
Q 1097 3394 1784 3394 
Q 2450 3394 2872 2941 
Q 3294 2488 3294 1666 
Q 3294 1616 3291 1516 
L 816 1516 
Q 847 969 1125 678 
Q 1403 388 1819 388 
Q 2128 388 2347 550 
Q 2566 713 2694 1069 
z
M 847 1978 
L 2700 1978 
Q 2663 2397 2488 2606 
Q 2219 2931 1791 2931 
Q 1403 2931 1139 2672 
Q 875 2413 847 1978 
z
" transform="scale(0.015625)"/>
       </defs>
       <use xlink:href="#ArialMT-6e"/>
       <use xlink:href="#ArialMT-6f" x="55.615234"/>
       <use xlink:href="#ArialMT-6e" x="111.230469"/>
       <use xlink:href="#ArialMT-65" x="166.845703"/>
      </g>
      <!-- none -->
      <g style="fill: #262626" transform="translate(52.956281 265.046525) scale(0.088 -0.088)">
       <use xlink:href="#ArialMT-6e"/>
       <use xlink:href="#ArialMT-6f" x="55.615234"/>
       <use xlink:href="#ArialMT-6e" x="111.230469"/>
       <use xlink:href="#ArialMT-65" x="166.845703"/>
      </g>
     </g>
    </g>
    <g id="xtick_2">
     <g id="text_2">
      <!-- none -->
      <g style="fill: #262626" transform="translate(90.424844 255.738875) scale(0.088 -0.088)">
       <use xlink:href="#ArialMT-6e"/>
       <use xlink:href="#ArialMT-6f" x="55.615234"/>
       <use xlink:href="#ArialMT-6e" x="111.230469"/>
       <use xlink:href="#ArialMT-65" x="166.845703"/>
      </g>
      <!-- bass -->
      <g style="fill: #262626" transform="translate(90.918469 265.046525) scale(0.088 -0.088)">
       <defs>
        <path id="ArialMT-62" d="M 941 0 
L 419 0 
L 419 4581 
L 981 4581 
L 981 2947 
Q 1338 3394 1891 3394 
Q 2197 3394 2470 3270 
Q 2744 3147 2920 2923 
Q 3097 2700 3197 2384 
Q 3297 2069 3297 1709 
Q 3297 856 2875 390 
Q 2453 -75 1863 -75 
Q 1275 -75 941 416 
L 941 0 
z
M 934 1684 
Q 934 1088 1097 822 
Q 1363 388 1816 388 
Q 2184 388 2453 708 
Q 2722 1028 2722 1663 
Q 2722 2313 2464 2622 
Q 2206 2931 1841 2931 
Q 1472 2931 1203 2611 
Q 934 2291 934 1684 
z
" transform="scale(0.015625)"/>
        <path id="ArialMT-61" d="M 2588 409 
Q 2275 144 1986 34 
Q 1697 -75 1366 -75 
Q 819 -75 525 192 
Q 231 459 231 875 
Q 231 1119 342 1320 
Q 453 1522 633 1644 
Q 813 1766 1038 1828 
Q 1203 1872 1538 1913 
Q 2219 1994 2541 2106 
Q 2544 2222 2544 2253 
Q 2544 2597 2384 2738 
Q 2169 2928 1744 2928 
Q 1347 2928 1158 2789 
Q 969 2650 878 2297 
L 328 2372 
Q 403 2725 575 2942 
Q 747 3159 1072 3276 
Q 1397 3394 1825 3394 
Q 2250 3394 2515 3294 
Q 2781 3194 2906 3042 
Q 3031 2891 3081 2659 
Q 3109 2516 3109 2141 
L 3109 1391 
Q 3109 606 3145 398 
Q 3181 191 3288 0 
L 2700 0 
Q 2613 175 2588 409 
z
M 2541 1666 
Q 2234 1541 1622 1453 
Q 1275 1403 1131 1340 
Q 988 1278 909 1158 
Q 831 1038 831 891 
Q 831 666 1001 516 
Q 1172 366 1500 366 
Q 1825 366 2078 508 
Q 2331 650 2450 897 
Q 2541 1088 2541 1459 
L 2541 1666 
z
" transform="scale(0.015625)"/>
        <path id="ArialMT-73" d="M 197 991 
L 753 1078 
Q 800 744 1014 566 
Q 1228 388 1613 388 
Q 2000 388 2187 545 
Q 2375 703 2375 916 
Q 2375 1106 2209 1216 
Q 2094 1291 1634 1406 
Q 1016 1563 777 1677 
Q 538 1791 414 1992 
Q 291 2194 291 2438 
Q 291 2659 392 2848 
Q 494 3038 669 3163 
Q 800 3259 1026 3326 
Q 1253 3394 1513 3394 
Q 1903 3394 2198 3281 
Q 2494 3169 2634 2976 
Q 2775 2784 2828 2463 
L 2278 2388 
Q 2241 2644 2061 2787 
Q 1881 2931 1553 2931 
Q 1166 2931 1000 2803 
Q 834 2675 834 2503 
Q 834 2394 903 2306 
Q 972 2216 1119 2156 
Q 1203 2125 1616 2013 
Q 2213 1853 2448 1751 
Q 2684 1650 2818 1456 
Q 2953 1263 2953 975 
Q 2953 694 2789 445 
Q 2625 197 2315 61 
Q 2006 -75 1616 -75 
Q 969 -75 630 194 
Q 291 463 197 991 
z
" transform="scale(0.015625)"/>
       </defs>
       <use xlink:href="#ArialMT-62"/>
       <use xlink:href="#ArialMT-61" x="55.615234"/>
       <use xlink:href="#ArialMT-73" x="111.230469"/>
       <use xlink:href="#ArialMT-73" x="161.230469"/>
      </g>
     </g>
    </g>
    <g id="xtick_3">
     <g id="text_3">
      <!-- none -->
      <g style="fill: #262626" transform="translate(127.893406 255.738875) scale(0.088 -0.088)">
       <use xlink:href="#ArialMT-6e"/>
       <use xlink:href="#ArialMT-6f" x="55.615234"/>
       <use xlink:href="#ArialMT-6e" x="111.230469"/>
       <use xlink:href="#ArialMT-65" x="166.845703"/>
      </g>
      <!-- comp -->
      <g style="fill: #262626" transform="translate(126.921969 265.046525) scale(0.088 -0.088)">
       <defs>
        <path id="ArialMT-63" d="M 2588 1216 
L 3141 1144 
Q 3050 572 2676 248 
Q 2303 -75 1759 -75 
Q 1078 -75 664 370 
Q 250 816 250 1647 
Q 250 2184 428 2587 
Q 606 2991 970 3192 
Q 1334 3394 1763 3394 
Q 2303 3394 2647 3120 
Q 2991 2847 3088 2344 
L 2541 2259 
Q 2463 2594 2264 2762 
Q 2066 2931 1784 2931 
Q 1359 2931 1093 2626 
Q 828 2322 828 1663 
Q 828 994 1084 691 
Q 1341 388 1753 388 
Q 2084 388 2306 591 
Q 2528 794 2588 1216 
z
" transform="scale(0.015625)"/>
        <path id="ArialMT-6d" d="M 422 0 
L 422 3319 
L 925 3319 
L 925 2853 
Q 1081 3097 1340 3245 
Q 1600 3394 1931 3394 
Q 2300 3394 2536 3241 
Q 2772 3088 2869 2813 
Q 3263 3394 3894 3394 
Q 4388 3394 4653 3120 
Q 4919 2847 4919 2278 
L 4919 0 
L 4359 0 
L 4359 2091 
Q 4359 2428 4304 2576 
Q 4250 2725 4106 2815 
Q 3963 2906 3769 2906 
Q 3419 2906 3187 2673 
Q 2956 2441 2956 1928 
L 2956 0 
L 2394 0 
L 2394 2156 
Q 2394 2531 2256 2718 
Q 2119 2906 1806 2906 
Q 1569 2906 1367 2781 
Q 1166 2656 1075 2415 
Q 984 2175 984 1722 
L 984 0 
L 422 0 
z
" transform="scale(0.015625)"/>
        <path id="ArialMT-70" d="M 422 -1272 
L 422 3319 
L 934 3319 
L 934 2888 
Q 1116 3141 1344 3267 
Q 1572 3394 1897 3394 
Q 2322 3394 2647 3175 
Q 2972 2956 3137 2557 
Q 3303 2159 3303 1684 
Q 3303 1175 3120 767 
Q 2938 359 2589 142 
Q 2241 -75 1856 -75 
Q 1575 -75 1351 44 
Q 1128 163 984 344 
L 984 -1272 
L 422 -1272 
z
M 931 1641 
Q 931 1000 1190 694 
Q 1450 388 1819 388 
Q 2194 388 2461 705 
Q 2728 1022 2728 1688 
Q 2728 2322 2467 2637 
Q 2206 2953 1844 2953 
Q 1484 2953 1207 2617 
Q 931 2281 931 1641 
z
" transform="scale(0.015625)"/>
       </defs>
       <use xlink:href="#ArialMT-63"/>
       <use xlink:href="#ArialMT-6f" x="50"/>
       <use xlink:href="#ArialMT-6d" x="105.615234"/>
       <use xlink:href="#ArialMT-70" x="188.916016"/>
      </g>
     </g>
    </g>
    <g id="xtick_4">
     <g id="text_4">
      <!-- none -->
      <g style="fill: #262626" transform="translate(165.361969 255.738875) scale(0.088 -0.088)">
       <use xlink:href="#ArialMT-6e"/>
       <use xlink:href="#ArialMT-6f" x="55.615234"/>
       <use xlink:href="#ArialMT-6e" x="111.230469"/>
       <use xlink:href="#ArialMT-65" x="166.845703"/>
      </g>
      <!-- dist -->
      <g style="fill: #262626" transform="translate(168.302406 265.046525) scale(0.088 -0.088)">
       <defs>
        <path id="ArialMT-64" d="M 2575 0 
L 2575 419 
Q 2259 -75 1647 -75 
Q 1250 -75 917 144 
Q 584 363 401 755 
Q 219 1147 219 1656 
Q 219 2153 384 2558 
Q 550 2963 881 3178 
Q 1213 3394 1622 3394 
Q 1922 3394 2156 3267 
Q 2391 3141 2538 2938 
L 2538 4581 
L 3097 4581 
L 3097 0 
L 2575 0 
z
M 797 1656 
Q 797 1019 1065 703 
Q 1334 388 1700 388 
Q 2069 388 2326 689 
Q 2584 991 2584 1609 
Q 2584 2291 2321 2609 
Q 2059 2928 1675 2928 
Q 1300 2928 1048 2622 
Q 797 2316 797 1656 
z
" transform="scale(0.015625)"/>
        <path id="ArialMT-69" d="M 425 3934 
L 425 4581 
L 988 4581 
L 988 3934 
L 425 3934 
z
M 425 0 
L 425 3319 
L 988 3319 
L 988 0 
L 425 0 
z
" transform="scale(0.015625)"/>
        <path id="ArialMT-74" d="M 1650 503 
L 1731 6 
Q 1494 -44 1306 -44 
Q 1000 -44 831 53 
Q 663 150 594 308 
Q 525 466 525 972 
L 525 2881 
L 113 2881 
L 113 3319 
L 525 3319 
L 525 4141 
L 1084 4478 
L 1084 3319 
L 1650 3319 
L 1650 2881 
L 1084 2881 
L 1084 941 
Q 1084 700 1114 631 
Q 1144 563 1211 522 
Q 1278 481 1403 481 
Q 1497 481 1650 503 
z
" transform="scale(0.015625)"/>
       </defs>
       <use xlink:href="#ArialMT-64"/>
       <use xlink:href="#ArialMT-69" x="55.615234"/>
       <use xlink:href="#ArialMT-73" x="77.832031"/>
       <use xlink:href="#ArialMT-74" x="127.832031"/>
      </g>
     </g>
    </g>
    <g id="xtick_5">
     <g id="text_5">
      <!-- resamp -->
      <g style="fill: #262626" transform="translate(197.947219 255.738875) scale(0.088 -0.088)">
       <defs>
        <path id="ArialMT-72" d="M 416 0 
L 416 3319 
L 922 3319 
L 922 2816 
Q 1116 3169 1280 3281 
Q 1444 3394 1641 3394 
Q 1925 3394 2219 3213 
L 2025 2691 
Q 1819 2813 1613 2813 
Q 1428 2813 1281 2702 
Q 1134 2591 1072 2394 
Q 978 2094 978 1738 
L 978 0 
L 416 0 
z
" transform="scale(0.015625)"/>
       </defs>
       <use xlink:href="#ArialMT-72"/>
       <use xlink:href="#ArialMT-65" x="33.300781"/>
       <use xlink:href="#ArialMT-73" x="88.916016"/>
       <use xlink:href="#ArialMT-61" x="138.916016"/>
       <use xlink:href="#ArialMT-6d" x="194.53125"/>
       <use xlink:href="#ArialMT-70" x="277.832031"/>
      </g>
      <!-- none -->
      <g style="fill: #262626" transform="translate(202.830531 265.046525) scale(0.088 -0.088)">
       <use xlink:href="#ArialMT-6e"/>
       <use xlink:href="#ArialMT-6f" x="55.615234"/>
       <use xlink:href="#ArialMT-6e" x="111.230469"/>
       <use xlink:href="#ArialMT-65" x="166.845703"/>
      </g>
     </g>
    </g>
    <g id="xtick_6">
     <g id="text_6">
      <!-- resamp -->
      <g style="fill: #262626" transform="translate(235.415781 255.738875) scale(0.088 -0.088)">
       <use xlink:href="#ArialMT-72"/>
       <use xlink:href="#ArialMT-65" x="33.300781"/>
       <use xlink:href="#ArialMT-73" x="88.916016"/>
       <use xlink:href="#ArialMT-61" x="138.916016"/>
       <use xlink:href="#ArialMT-6d" x="194.53125"/>
       <use xlink:href="#ArialMT-70" x="277.832031"/>
      </g>
      <!-- bass -->
      <g style="fill: #262626" transform="translate(240.792719 265.046525) scale(0.088 -0.088)">
       <use xlink:href="#ArialMT-62"/>
       <use xlink:href="#ArialMT-61" x="55.615234"/>
       <use xlink:href="#ArialMT-73" x="111.230469"/>
       <use xlink:href="#ArialMT-73" x="161.230469"/>
      </g>
     </g>
    </g>
    <g id="xtick_7">
     <g id="text_7">
      <!-- resamp -->
      <g style="fill: #262626" transform="translate(272.884344 255.738875) scale(0.088 -0.088)">
       <use xlink:href="#ArialMT-72"/>
       <use xlink:href="#ArialMT-65" x="33.300781"/>
       <use xlink:href="#ArialMT-73" x="88.916016"/>
       <use xlink:href="#ArialMT-61" x="138.916016"/>
       <use xlink:href="#ArialMT-6d" x="194.53125"/>
       <use xlink:href="#ArialMT-70" x="277.832031"/>
      </g>
      <!-- comp -->
      <g style="fill: #262626" transform="translate(276.796219 265.046525) scale(0.088 -0.088)">
       <use xlink:href="#ArialMT-63"/>
       <use xlink:href="#ArialMT-6f" x="50"/>
       <use xlink:href="#ArialMT-6d" x="105.615234"/>
       <use xlink:href="#ArialMT-70" x="188.916016"/>
      </g>
     </g>
    </g>
    <g id="xtick_8">
     <g id="text_8">
      <!-- resamp -->
      <g style="fill: #262626" transform="translate(310.352906 255.738875) scale(0.088 -0.088)">
       <use xlink:href="#ArialMT-72"/>
       <use xlink:href="#ArialMT-65" x="33.300781"/>
       <use xlink:href="#ArialMT-73" x="88.916016"/>
       <use xlink:href="#ArialMT-61" x="138.916016"/>
       <use xlink:href="#ArialMT-6d" x="194.53125"/>
       <use xlink:href="#ArialMT-70" x="277.832031"/>
      </g>
      <!-- dist -->
      <g style="fill: #262626" transform="translate(318.176656 265.046525) scale(0.088 -0.088)">
       <use xlink:href="#ArialMT-64"/>
       <use xlink:href="#ArialMT-69" x="55.615234"/>
       <use xlink:href="#ArialMT-73" x="77.832031"/>
       <use xlink:href="#ArialMT-74" x="127.832031"/>
      </g>
     </g>
    </g>
    <g id="xtick_9">
     <g id="text_9">
      <!-- stretch -->
      <g style="fill: #262626" transform="translate(349.288594 255.738875) scale(0.088 -0.088)">
       <defs>
        <path id="ArialMT-68" d="M 422 0 
L 422 4581 
L 984 4581 
L 984 2938 
Q 1378 3394 1978 3394 
Q 2347 3394 2619 3248 
Q 2891 3103 3008 2847 
Q 3125 2591 3125 2103 
L 3125 0 
L 2563 0 
L 2563 2103 
Q 2563 2525 2380 2717 
Q 2197 2909 1863 2909 
Q 1613 2909 1392 2779 
Q 1172 2650 1078 2428 
Q 984 2206 984 1816 
L 984 0 
L 422 0 
z
" transform="scale(0.015625)"/>
       </defs>
       <use xlink:href="#ArialMT-73"/>
       <use xlink:href="#ArialMT-74" x="50"/>
       <use xlink:href="#ArialMT-72" x="77.783203"/>
       <use xlink:href="#ArialMT-65" x="111.083984"/>
       <use xlink:href="#ArialMT-74" x="166.699219"/>
       <use xlink:href="#ArialMT-63" x="194.482422"/>
       <use xlink:href="#ArialMT-68" x="244.482422"/>
      </g>
      <!-- none -->
      <g style="fill: #262626" transform="translate(352.704781 265.046525) scale(0.088 -0.088)">
       <use xlink:href="#ArialMT-6e"/>
       <use xlink:href="#ArialMT-6f" x="55.615234"/>
       <use xlink:href="#ArialMT-6e" x="111.230469"/>
       <use xlink:href="#ArialMT-65" x="166.845703"/>
      </g>
     </g>
    </g>
    <g id="xtick_10">
     <g id="text_10">
      <!-- stretch -->
      <g style="fill: #262626" transform="translate(386.757156 255.738875) scale(0.088 -0.088)">
       <use xlink:href="#ArialMT-73"/>
       <use xlink:href="#ArialMT-74" x="50"/>
       <use xlink:href="#ArialMT-72" x="77.783203"/>
       <use xlink:href="#ArialMT-65" x="111.083984"/>
       <use xlink:href="#ArialMT-74" x="166.699219"/>
       <use xlink:href="#ArialMT-63" x="194.482422"/>
       <use xlink:href="#ArialMT-68" x="244.482422"/>
      </g>
      <!-- bass -->
      <g style="fill: #262626" transform="translate(390.666969 265.046525) scale(0.088 -0.088)">
       <use xlink:href="#ArialMT-62"/>
       <use xlink:href="#ArialMT-61" x="55.615234"/>
       <use xlink:href="#ArialMT-73" x="111.230469"/>
       <use xlink:href="#ArialMT-73" x="161.230469"/>
      </g>
     </g>
    </g>
    <g id="xtick_11">
     <g id="text_11">
      <!-- stretch -->
      <g style="fill: #262626" transform="translate(424.225719 255.738875) scale(0.088 -0.088)">
       <use xlink:href="#ArialMT-73"/>
       <use xlink:href="#ArialMT-74" x="50"/>
       <use xlink:href="#ArialMT-72" x="77.783203"/>
       <use xlink:href="#ArialMT-65" x="111.083984"/>
       <use xlink:href="#ArialMT-74" x="166.699219"/>
       <use xlink:href="#ArialMT-63" x="194.482422"/>
       <use xlink:href="#ArialMT-68" x="244.482422"/>
      </g>
      <!-- comp -->
      <g style="fill: #262626" transform="translate(426.670469 265.046525) scale(0.088 -0.088)">
       <use xlink:href="#ArialMT-63"/>
       <use xlink:href="#ArialMT-6f" x="50"/>
       <use xlink:href="#ArialMT-6d" x="105.615234"/>
       <use xlink:href="#ArialMT-70" x="188.916016"/>
      </g>
     </g>
    </g>
    <g id="xtick_12">
     <g id="text_12">
      <!-- stretch -->
      <g style="fill: #262626" transform="translate(461.694281 255.738875) scale(0.088 -0.088)">
       <use xlink:href="#ArialMT-73"/>
       <use xlink:href="#ArialMT-74" x="50"/>
       <use xlink:href="#ArialMT-72" x="77.783203"/>
       <use xlink:href="#ArialMT-65" x="111.083984"/>
       <use xlink:href="#ArialMT-74" x="166.699219"/>
       <use xlink:href="#ArialMT-63" x="194.482422"/>
       <use xlink:href="#ArialMT-68" x="244.482422"/>
      </g>
      <!-- dist -->
      <g style="fill: #262626" transform="translate(468.050906 265.046525) scale(0.088 -0.088)">
       <use xlink:href="#ArialMT-64"/>
       <use xlink:href="#ArialMT-69" x="55.615234"/>
       <use xlink:href="#ArialMT-73" x="77.832031"/>
       <use xlink:href="#ArialMT-74" x="127.832031"/>
      </g>
     </g>
    </g>
    <g id="text_13">
     <!-- transformation -->
     <g style="fill: #262626" transform="translate(238.143375 277.667025) scale(0.096 -0.096)">
      <defs>
       <path id="ArialMT-66" d="M 556 0 
L 556 2881 
L 59 2881 
L 59 3319 
L 556 3319 
L 556 3672 
Q 556 4006 616 4169 
Q 697 4388 901 4523 
Q 1106 4659 1475 4659 
Q 1713 4659 2000 4603 
L 1916 4113 
Q 1741 4144 1584 4144 
Q 1328 4144 1222 4034 
Q 1116 3925 1116 3625 
L 1116 3319 
L 1763 3319 
L 1763 2881 
L 1116 2881 
L 1116 0 
L 556 0 
z
" transform="scale(0.015625)"/>
      </defs>
      <use xlink:href="#ArialMT-74"/>
      <use xlink:href="#ArialMT-72" x="27.783203"/>
      <use xlink:href="#ArialMT-61" x="61.083984"/>
      <use xlink:href="#ArialMT-6e" x="116.699219"/>
      <use xlink:href="#ArialMT-73" x="172.314453"/>
      <use xlink:href="#ArialMT-66" x="222.314453"/>
      <use xlink:href="#ArialMT-6f" x="250.097656"/>
      <use xlink:href="#ArialMT-72" x="305.712891"/>
      <use xlink:href="#ArialMT-6d" x="339.013672"/>
      <use xlink:href="#ArialMT-61" x="422.314453"/>
      <use xlink:href="#ArialMT-74" x="477.929688"/>
      <use xlink:href="#ArialMT-69" x="505.712891"/>
      <use xlink:href="#ArialMT-6f" x="527.929688"/>
      <use xlink:href="#ArialMT-6e" x="583.544922"/>
     </g>
    </g>
   </g>
   <g id="matplotlib.axis_2">
    <g id="ytick_1">
     <g id="line2d_1">
      <path d="M 44.00925 218.0628 
L 493.632 218.0628 
" clip-path="url(#pc6778c985a)" style="fill: none; stroke: #ffffff; stroke-width: 0.8; stroke-linecap: round"/>
     </g>
     <g id="text_14">
      <!-- 0.6 -->
      <g style="fill: #262626" transform="translate(23.47725 221.212237) scale(0.088 -0.088)">
       <defs>
        <path id="ArialMT-30" d="M 266 2259 
Q 266 3072 433 3567 
Q 600 4063 929 4331 
Q 1259 4600 1759 4600 
Q 2128 4600 2406 4451 
Q 2684 4303 2865 4023 
Q 3047 3744 3150 3342 
Q 3253 2941 3253 2259 
Q 3253 1453 3087 958 
Q 2922 463 2592 192 
Q 2263 -78 1759 -78 
Q 1097 -78 719 397 
Q 266 969 266 2259 
z
M 844 2259 
Q 844 1131 1108 757 
Q 1372 384 1759 384 
Q 2147 384 2411 759 
Q 2675 1134 2675 2259 
Q 2675 3391 2411 3762 
Q 2147 4134 1753 4134 
Q 1366 4134 1134 3806 
Q 844 3388 844 2259 
z
" transform="scale(0.015625)"/>
        <path id="ArialMT-2e" d="M 581 0 
L 581 641 
L 1222 641 
L 1222 0 
L 581 0 
z
" transform="scale(0.015625)"/>
        <path id="ArialMT-36" d="M 3184 3459 
L 2625 3416 
Q 2550 3747 2413 3897 
Q 2184 4138 1850 4138 
Q 1581 4138 1378 3988 
Q 1113 3794 959 3422 
Q 806 3050 800 2363 
Q 1003 2672 1297 2822 
Q 1591 2972 1913 2972 
Q 2475 2972 2870 2558 
Q 3266 2144 3266 1488 
Q 3266 1056 3080 686 
Q 2894 316 2569 119 
Q 2244 -78 1831 -78 
Q 1128 -78 684 439 
Q 241 956 241 2144 
Q 241 3472 731 4075 
Q 1159 4600 1884 4600 
Q 2425 4600 2770 4297 
Q 3116 3994 3184 3459 
z
M 888 1484 
Q 888 1194 1011 928 
Q 1134 663 1356 523 
Q 1578 384 1822 384 
Q 2178 384 2434 671 
Q 2691 959 2691 1453 
Q 2691 1928 2437 2201 
Q 2184 2475 1800 2475 
Q 1419 2475 1153 2201 
Q 888 1928 888 1484 
z
" transform="scale(0.015625)"/>
       </defs>
       <use xlink:href="#ArialMT-30"/>
       <use xlink:href="#ArialMT-2e" x="55.615234"/>
       <use xlink:href="#ArialMT-36" x="83.398438"/>
      </g>
     </g>
    </g>
    <g id="ytick_2">
     <g id="line2d_2">
      <path d="M 44.00925 171.9084 
L 493.632 171.9084 
" clip-path="url(#pc6778c985a)" style="fill: none; stroke: #ffffff; stroke-width: 0.8; stroke-linecap: round"/>
     </g>
     <g id="text_15">
      <!-- 0.8 -->
      <g style="fill: #262626" transform="translate(23.47725 175.057838) scale(0.088 -0.088)">
       <defs>
        <path id="ArialMT-38" d="M 1131 2484 
Q 781 2613 612 2850 
Q 444 3088 444 3419 
Q 444 3919 803 4259 
Q 1163 4600 1759 4600 
Q 2359 4600 2725 4251 
Q 3091 3903 3091 3403 
Q 3091 3084 2923 2848 
Q 2756 2613 2416 2484 
Q 2838 2347 3058 2040 
Q 3278 1734 3278 1309 
Q 3278 722 2862 322 
Q 2447 -78 1769 -78 
Q 1091 -78 675 323 
Q 259 725 259 1325 
Q 259 1772 486 2073 
Q 713 2375 1131 2484 
z
M 1019 3438 
Q 1019 3113 1228 2906 
Q 1438 2700 1772 2700 
Q 2097 2700 2305 2904 
Q 2513 3109 2513 3406 
Q 2513 3716 2298 3927 
Q 2084 4138 1766 4138 
Q 1444 4138 1231 3931 
Q 1019 3725 1019 3438 
z
M 838 1322 
Q 838 1081 952 856 
Q 1066 631 1291 507 
Q 1516 384 1775 384 
Q 2178 384 2440 643 
Q 2703 903 2703 1303 
Q 2703 1709 2433 1975 
Q 2163 2241 1756 2241 
Q 1359 2241 1098 1978 
Q 838 1716 838 1322 
z
" transform="scale(0.015625)"/>
       </defs>
       <use xlink:href="#ArialMT-30"/>
       <use xlink:href="#ArialMT-2e" x="55.615234"/>
       <use xlink:href="#ArialMT-38" x="83.398438"/>
      </g>
     </g>
    </g>
    <g id="ytick_3">
     <g id="line2d_3">
      <path d="M 44.00925 125.754 
L 493.632 125.754 
" clip-path="url(#pc6778c985a)" style="fill: none; stroke: #ffffff; stroke-width: 0.8; stroke-linecap: round"/>
     </g>
     <g id="text_16">
      <!-- 1.0 -->
      <g style="fill: #262626" transform="translate(23.47725 128.903438) scale(0.088 -0.088)">
       <defs>
        <path id="ArialMT-31" d="M 2384 0 
L 1822 0 
L 1822 3584 
Q 1619 3391 1289 3197 
Q 959 3003 697 2906 
L 697 3450 
Q 1169 3672 1522 3987 
Q 1875 4303 2022 4600 
L 2384 4600 
L 2384 0 
z
" transform="scale(0.015625)"/>
       </defs>
       <use xlink:href="#ArialMT-31"/>
       <use xlink:href="#ArialMT-2e" x="55.615234"/>
       <use xlink:href="#ArialMT-30" x="83.398438"/>
      </g>
     </g>
    </g>
    <g id="ytick_4">
     <g id="line2d_4">
      <path d="M 44.00925 79.5996 
L 493.632 79.5996 
" clip-path="url(#pc6778c985a)" style="fill: none; stroke: #ffffff; stroke-width: 0.8; stroke-linecap: round"/>
     </g>
     <g id="text_17">
      <!-- 1.2 -->
      <g style="fill: #262626" transform="translate(23.47725 82.749037) scale(0.088 -0.088)">
       <defs>
        <path id="ArialMT-32" d="M 3222 541 
L 3222 0 
L 194 0 
Q 188 203 259 391 
Q 375 700 629 1000 
Q 884 1300 1366 1694 
Q 2113 2306 2375 2664 
Q 2638 3022 2638 3341 
Q 2638 3675 2398 3904 
Q 2159 4134 1775 4134 
Q 1369 4134 1125 3890 
Q 881 3647 878 3216 
L 300 3275 
Q 359 3922 746 4261 
Q 1134 4600 1788 4600 
Q 2447 4600 2831 4234 
Q 3216 3869 3216 3328 
Q 3216 3053 3103 2787 
Q 2991 2522 2730 2228 
Q 2469 1934 1863 1422 
Q 1356 997 1212 845 
Q 1069 694 975 541 
L 3222 541 
z
" transform="scale(0.015625)"/>
       </defs>
       <use xlink:href="#ArialMT-31"/>
       <use xlink:href="#ArialMT-2e" x="55.615234"/>
       <use xlink:href="#ArialMT-32" x="83.398438"/>
      </g>
     </g>
    </g>
    <g id="ytick_5">
     <g id="line2d_5">
      <path d="M 44.00925 33.4452 
L 493.632 33.4452 
" clip-path="url(#pc6778c985a)" style="fill: none; stroke: #ffffff; stroke-width: 0.8; stroke-linecap: round"/>
     </g>
     <g id="text_18">
      <!-- 1.4 -->
      <g style="fill: #262626" transform="translate(23.47725 36.594638) scale(0.088 -0.088)">
       <defs>
        <path id="ArialMT-34" d="M 2069 0 
L 2069 1097 
L 81 1097 
L 81 1613 
L 2172 4581 
L 2631 4581 
L 2631 1613 
L 3250 1613 
L 3250 1097 
L 2631 1097 
L 2631 0 
L 2069 0 
z
M 2069 1613 
L 2069 3678 
L 634 1613 
L 2069 1613 
z
" transform="scale(0.015625)"/>
       </defs>
       <use xlink:href="#ArialMT-31"/>
       <use xlink:href="#ArialMT-2e" x="55.615234"/>
       <use xlink:href="#ArialMT-34" x="83.398438"/>
      </g>
     </g>
    </g>
    <g id="text_19">
     <!-- Speed ratio -->
     <g style="fill: #262626" transform="translate(17.56925 150.303) rotate(-90) scale(0.096 -0.096)">
      <defs>
       <path id="ArialMT-53" d="M 288 1472 
L 859 1522 
Q 900 1178 1048 958 
Q 1197 738 1509 602 
Q 1822 466 2213 466 
Q 2559 466 2825 569 
Q 3091 672 3220 851 
Q 3350 1031 3350 1244 
Q 3350 1459 3225 1620 
Q 3100 1781 2813 1891 
Q 2628 1963 1997 2114 
Q 1366 2266 1113 2400 
Q 784 2572 623 2826 
Q 463 3081 463 3397 
Q 463 3744 659 4045 
Q 856 4347 1234 4503 
Q 1613 4659 2075 4659 
Q 2584 4659 2973 4495 
Q 3363 4331 3572 4012 
Q 3781 3694 3797 3291 
L 3216 3247 
Q 3169 3681 2898 3903 
Q 2628 4125 2100 4125 
Q 1550 4125 1298 3923 
Q 1047 3722 1047 3438 
Q 1047 3191 1225 3031 
Q 1400 2872 2139 2705 
Q 2878 2538 3153 2413 
Q 3553 2228 3743 1945 
Q 3934 1663 3934 1294 
Q 3934 928 3725 604 
Q 3516 281 3123 101 
Q 2731 -78 2241 -78 
Q 1619 -78 1198 103 
Q 778 284 539 648 
Q 300 1013 288 1472 
z
" transform="scale(0.015625)"/>
       <path id="ArialMT-20" transform="scale(0.015625)"/>
      </defs>
      <use xlink:href="#ArialMT-53"/>
      <use xlink:href="#ArialMT-70" x="66.699219"/>
      <use xlink:href="#ArialMT-65" x="122.314453"/>
      <use xlink:href="#ArialMT-65" x="177.929688"/>
      <use xlink:href="#ArialMT-64" x="233.544922"/>
      <use xlink:href="#ArialMT-20" x="289.160156"/>
      <use xlink:href="#ArialMT-72" x="316.943359"/>
      <use xlink:href="#ArialMT-61" x="350.244141"/>
      <use xlink:href="#ArialMT-74" x="405.859375"/>
      <use xlink:href="#ArialMT-69" x="433.642578"/>
      <use xlink:href="#ArialMT-6f" x="455.859375"/>
     </g>
    </g>
   </g>
   <g id="patch_3">
    <path d="M 62.743531 356.526 
L 62.743531 356.526 
L 62.743531 356.526 
L 62.743531 356.526 
z
" clip-path="url(#pc6778c985a)" style="fill: #5875a4; stroke: #4c4c4c; stroke-width: 0.8; stroke-linejoin: miter"/>
   </g>
   <g id="patch_4">
    <path d="M 47.756106 141.834721 
L 77.730956 141.834721 
L 77.730956 119.337483 
L 47.756106 119.337483 
L 47.756106 141.834721 
z
" clip-path="url(#pc6778c985a)" style="fill: #5875a4; stroke: #4c4c4c; stroke-linejoin: miter"/>
   </g>
   <g id="line2d_6">
    <path d="M 62.743531 141.834721 
L 62.743531 174.303973 
" clip-path="url(#pc6778c985a)" style="fill: none; stroke: #4c4c4c"/>
   </g>
   <g id="line2d_7">
    <path d="M 62.743531 119.337483 
L 62.743531 87.563201 
" clip-path="url(#pc6778c985a)" style="fill: none; stroke: #4c4c4c"/>
   </g>
   <g id="line2d_8">
    <path d="M 55.249819 174.303973 
L 70.237244 174.303973 
" clip-path="url(#pc6778c985a)" style="fill: none; stroke: #4c4c4c; stroke-linecap: round"/>
   </g>
   <g id="line2d_9">
    <path d="M 55.249819 87.563201 
L 70.237244 87.563201 
" clip-path="url(#pc6778c985a)" style="fill: none; stroke: #4c4c4c; stroke-linecap: round"/>
   </g>
   <g id="line2d_10">
    <defs>
     <path id="mc4c0b90900" d="M 0 0.5 
C 0.132602 0.5 0.25979 0.447317 0.353553 0.353553 
C 0.447317 0.25979 0.5 0.132602 0.5 0 
C 0.5 -0.132602 0.447317 -0.25979 0.353553 -0.353553 
C 0.25979 -0.447317 0.132602 -0.5 0 -0.5 
C -0.132602 -0.5 -0.25979 -0.447317 -0.353553 -0.353553 
C -0.447317 -0.25979 -0.5 -0.132602 -0.5 0 
C -0.5 0.132602 -0.447317 0.25979 -0.353553 0.353553 
C -0.25979 0.447317 -0.132602 0.5 0 0.5 
z
" style="stroke: #4c4c4c"/>
    </defs>
    <g clip-path="url(#pc6778c985a)">
     <use xlink:href="#mc4c0b90900" x="62.743531" y="243.978389" style="fill-opacity: 0; stroke: #4c4c4c"/>
     <use xlink:href="#mc4c0b90900" x="62.743531" y="246.444574" style="fill-opacity: 0; stroke: #4c4c4c"/>
     <use xlink:href="#mc4c0b90900" x="62.743531" y="198.689903" style="fill-opacity: 0; stroke: #4c4c4c"/>
     <use xlink:href="#mc4c0b90900" x="62.743531" y="175.601135" style="fill-opacity: 0; stroke: #4c4c4c"/>
     <use xlink:href="#mc4c0b90900" x="62.743531" y="190.577263" style="fill-opacity: 0; stroke: #4c4c4c"/>
     <use xlink:href="#mc4c0b90900" x="62.743531" y="177.486501" style="fill-opacity: 0; stroke: #4c4c4c"/>
    </g>
   </g>
   <g id="patch_5">
    <path d="M 85.224669 148.806547 
L 115.199519 148.806547 
L 115.199519 121.14846 
L 85.224669 121.14846 
L 85.224669 148.806547 
z
" clip-path="url(#pc6778c985a)" style="fill: #5875a4; stroke: #4c4c4c; stroke-linejoin: miter"/>
   </g>
   <g id="line2d_11">
    <path d="M 100.212094 148.806547 
L 100.212094 187.546955 
" clip-path="url(#pc6778c985a)" style="fill: none; stroke: #4c4c4c"/>
   </g>
   <g id="line2d_12">
    <path d="M 100.212094 121.14846 
L 100.212094 81.90694 
" clip-path="url(#pc6778c985a)" style="fill: none; stroke: #4c4c4c"/>
   </g>
   <g id="line2d_13">
    <path d="M 92.718381 187.546955 
L 107.705806 187.546955 
" clip-path="url(#pc6778c985a)" style="fill: none; stroke: #4c4c4c; stroke-linecap: round"/>
   </g>
   <g id="line2d_14">
    <path d="M 92.718381 81.90694 
L 107.705806 81.90694 
" clip-path="url(#pc6778c985a)" style="fill: none; stroke: #4c4c4c; stroke-linecap: round"/>
   </g>
   <g id="line2d_15">
    <g clip-path="url(#pc6778c985a)">
     <use xlink:href="#mc4c0b90900" x="100.212094" y="218.983301" style="fill-opacity: 0; stroke: #4c4c4c"/>
     <use xlink:href="#mc4c0b90900" x="100.212094" y="194.893292" style="fill-opacity: 0; stroke: #4c4c4c"/>
     <use xlink:href="#mc4c0b90900" x="100.212094" y="210.487697" style="fill-opacity: 0; stroke: #4c4c4c"/>
     <use xlink:href="#mc4c0b90900" x="100.212094" y="196.42008" style="fill-opacity: 0; stroke: #4c4c4c"/>
     <use xlink:href="#mc4c0b90900" x="100.212094" y="226.239722" style="fill-opacity: 0; stroke: #4c4c4c"/>
    </g>
   </g>
   <g id="patch_6">
    <path d="M 122.693231 149.767947 
L 152.668081 149.767947 
L 152.668081 123.466171 
L 122.693231 123.466171 
L 122.693231 149.767947 
z
" clip-path="url(#pc6778c985a)" style="fill: #5875a4; stroke: #4c4c4c; stroke-linejoin: miter"/>
   </g>
   <g id="line2d_16">
    <path d="M 137.680656 149.767947 
L 137.680656 188.548652 
" clip-path="url(#pc6778c985a)" style="fill: none; stroke: #4c4c4c"/>
   </g>
   <g id="line2d_17">
    <path d="M 137.680656 123.466171 
L 137.680656 101.093877 
" clip-path="url(#pc6778c985a)" style="fill: none; stroke: #4c4c4c"/>
   </g>
   <g id="line2d_18">
    <path d="M 130.186944 188.548652 
L 145.174369 188.548652 
" clip-path="url(#pc6778c985a)" style="fill: none; stroke: #4c4c4c; stroke-linecap: round"/>
   </g>
   <g id="line2d_19">
    <path d="M 130.186944 101.093877 
L 145.174369 101.093877 
" clip-path="url(#pc6778c985a)" style="fill: none; stroke: #4c4c4c; stroke-linecap: round"/>
   </g>
   <g id="line2d_20">
    <g clip-path="url(#pc6778c985a)">
     <use xlink:href="#mc4c0b90900" x="137.680656" y="226.780826" style="fill-opacity: 0; stroke: #4c4c4c"/>
     <use xlink:href="#mc4c0b90900" x="137.680656" y="196.439419" style="fill-opacity: 0; stroke: #4c4c4c"/>
     <use xlink:href="#mc4c0b90900" x="137.680656" y="270.562529" style="fill-opacity: 0; stroke: #4c4c4c"/>
     <use xlink:href="#mc4c0b90900" x="137.680656" y="203.968965" style="fill-opacity: 0; stroke: #4c4c4c"/>
     <use xlink:href="#mc4c0b90900" x="137.680656" y="189.402241" style="fill-opacity: 0; stroke: #4c4c4c"/>
     <use xlink:href="#mc4c0b90900" x="137.680656" y="196.835351" style="fill-opacity: 0; stroke: #4c4c4c"/>
     <use xlink:href="#mc4c0b90900" x="137.680656" y="63.271505" style="fill-opacity: 0; stroke: #4c4c4c"/>
     <use xlink:href="#mc4c0b90900" x="137.680656" y="71.040068" style="fill-opacity: 0; stroke: #4c4c4c"/>
    </g>
   </g>
   <g id="patch_7">
    <path d="M 160.161794 224.140826 
L 190.136644 224.140826 
L 190.136644 151.269748 
L 160.161794 151.269748 
L 160.161794 224.140826 
z
" clip-path="url(#pc6778c985a)" style="fill: #5875a4; stroke: #4c4c4c; stroke-linejoin: miter"/>
   </g>
   <g id="line2d_21">
    <path d="M 175.149219 224.140826 
L 175.149219 289 
" clip-path="url(#pc6778c985a)" style="fill: none; stroke: #4c4c4c"/>
   </g>
   <g id="line2d_22">
    <path d="M 175.149219 151.269748 
L 175.149219 43.616539 
" clip-path="url(#pc6778c985a)" style="fill: none; stroke: #4c4c4c"/>
   </g>
   <g id="line2d_23">
    <path clip-path="url(#pc6778c985a)" style="fill: none; stroke: #4c4c4c; stroke-linecap: round"/>
   </g>
   <g id="line2d_24">
    <path d="M 167.655506 43.616539 
L 182.642931 43.616539 
" clip-path="url(#pc6778c985a)" style="fill: none; stroke: #4c4c4c; stroke-linecap: round"/>
   </g>
   <g id="line2d_25"/>
   <g id="patch_8">
    <path d="M 197.630356 209.500067 
L 227.605206 209.500067 
L 227.605206 126.281237 
L 197.630356 126.281237 
L 197.630356 209.500067 
z
" clip-path="url(#pc6778c985a)" style="fill: #5875a4; stroke: #4c4c4c; stroke-linejoin: miter"/>
   </g>
   <g id="line2d_26">
    <path d="M 212.617781 209.500067 
L 212.617781 289 
" clip-path="url(#pc6778c985a)" style="fill: none; stroke: #4c4c4c"/>
   </g>
   <g id="line2d_27">
    <path d="M 212.617781 126.281237 
L 212.617781 65.30913 
" clip-path="url(#pc6778c985a)" style="fill: none; stroke: #4c4c4c"/>
   </g>
   <g id="line2d_28">
    <path clip-path="url(#pc6778c985a)" style="fill: none; stroke: #4c4c4c; stroke-linecap: round"/>
   </g>
   <g id="line2d_29">
    <path d="M 205.124069 65.30913 
L 220.111494 65.30913 
" clip-path="url(#pc6778c985a)" style="fill: none; stroke: #4c4c4c; stroke-linecap: round"/>
   </g>
   <g id="line2d_30">
    <g clip-path="url(#pc6778c985a)">
     <use xlink:href="#mc4c0b90900" x="212.617781" y="380.740722" style="fill-opacity: 0; stroke: #4c4c4c"/>
     <use xlink:href="#mc4c0b90900" x="212.617781" y="-1" style="fill-opacity: 0; stroke: #4c4c4c"/>
    </g>
   </g>
   <g id="patch_9">
    <path d="M 235.098919 232.19073 
L 265.073769 232.19073 
L 265.073769 138.249238 
L 235.098919 138.249238 
L 235.098919 232.19073 
z
" clip-path="url(#pc6778c985a)" style="fill: #5875a4; stroke: #4c4c4c; stroke-linejoin: miter"/>
   </g>
   <g id="line2d_31">
    <path d="M 250.086344 232.19073 
L 250.086344 289 
" clip-path="url(#pc6778c985a)" style="fill: none; stroke: #4c4c4c"/>
   </g>
   <g id="line2d_32">
    <path d="M 250.086344 138.249238 
L 250.086344 89.01714 
" clip-path="url(#pc6778c985a)" style="fill: none; stroke: #4c4c4c"/>
   </g>
   <g id="line2d_33">
    <path clip-path="url(#pc6778c985a)" style="fill: none; stroke: #4c4c4c; stroke-linecap: round"/>
   </g>
   <g id="line2d_34">
    <path d="M 242.592631 89.01714 
L 257.580056 89.01714 
" clip-path="url(#pc6778c985a)" style="fill: none; stroke: #4c4c4c; stroke-linecap: round"/>
   </g>
   <g id="line2d_35">
    <g clip-path="url(#pc6778c985a)">
     <use xlink:href="#mc4c0b90900" x="250.086344" y="396.022218" style="fill-opacity: 0; stroke: #4c4c4c"/>
     <use xlink:href="#mc4c0b90900" x="250.086344" y="521.402068" style="fill-opacity: 0; stroke: #4c4c4c"/>
     <use xlink:href="#mc4c0b90900" x="250.086344" y="430.645221" style="fill-opacity: 0; stroke: #4c4c4c"/>
    </g>
   </g>
   <g id="patch_10">
    <path d="M 272.567481 227.866109 
L 302.542331 227.866109 
L 302.542331 147.648358 
L 272.567481 147.648358 
L 272.567481 227.866109 
z
" clip-path="url(#pc6778c985a)" style="fill: #5875a4; stroke: #4c4c4c; stroke-linejoin: miter"/>
   </g>
   <g id="line2d_36">
    <path d="M 287.554906 227.866109 
L 287.554906 289 
" clip-path="url(#pc6778c985a)" style="fill: none; stroke: #4c4c4c"/>
   </g>
   <g id="line2d_37">
    <path d="M 287.554906 147.648358 
L 287.554906 73.376088 
" clip-path="url(#pc6778c985a)" style="fill: none; stroke: #4c4c4c"/>
   </g>
   <g id="line2d_38">
    <path clip-path="url(#pc6778c985a)" style="fill: none; stroke: #4c4c4c; stroke-linecap: round"/>
   </g>
   <g id="line2d_39">
    <path d="M 280.061194 73.376088 
L 295.048619 73.376088 
" clip-path="url(#pc6778c985a)" style="fill: none; stroke: #4c4c4c; stroke-linecap: round"/>
   </g>
   <g id="line2d_40">
    <g clip-path="url(#pc6778c985a)">
     <use xlink:href="#mc4c0b90900" x="287.554906" y="837.517024" style="fill-opacity: 0; stroke: #4c4c4c"/>
     <use xlink:href="#mc4c0b90900" x="287.554906" y="27.006331" style="fill-opacity: 0; stroke: #4c4c4c"/>
    </g>
   </g>
   <g id="patch_11">
    <path d="M 310.036044 305.948183 
L 340.010894 305.948183 
L 340.010894 191.957523 
L 310.036044 191.957523 
L 310.036044 305.948183 
z
" clip-path="url(#pc6778c985a)" style="fill: #5875a4; stroke: #4c4c4c; stroke-linejoin: miter"/>
   </g>
   <g id="line2d_41">
    <path clip-path="url(#pc6778c985a)" style="fill: none; stroke: #4c4c4c"/>
   </g>
   <g id="line2d_42">
    <path d="M 325.023469 191.957523 
L 325.023469 37.902437 
" clip-path="url(#pc6778c985a)" style="fill: none; stroke: #4c4c4c"/>
   </g>
   <g id="line2d_43">
    <path clip-path="url(#pc6778c985a)" style="fill: none; stroke: #4c4c4c; stroke-linecap: round"/>
   </g>
   <g id="line2d_44">
    <path d="M 317.529756 37.902437 
L 332.517181 37.902437 
" clip-path="url(#pc6778c985a)" style="fill: none; stroke: #4c4c4c; stroke-linecap: round"/>
   </g>
   <g id="line2d_45">
    <g clip-path="url(#pc6778c985a)">
     <use xlink:href="#mc4c0b90900" x="325.023469" y="479.890054" style="fill-opacity: 0; stroke: #4c4c4c"/>
     <use xlink:href="#mc4c0b90900" x="325.023469" y="533.601115" style="fill-opacity: 0; stroke: #4c4c4c"/>
     <use xlink:href="#mc4c0b90900" x="325.023469" y="511.775565" style="fill-opacity: 0; stroke: #4c4c4c"/>
     <use xlink:href="#mc4c0b90900" x="325.023469" y="-1" style="fill-opacity: 0; stroke: #4c4c4c"/>
    </g>
   </g>
   <g id="patch_12">
    <path d="M 347.504606 145.134138 
L 377.479456 145.134138 
L 377.479456 118.708664 
L 347.504606 118.708664 
L 347.504606 145.134138 
z
" clip-path="url(#pc6778c985a)" style="fill: #5875a4; stroke: #4c4c4c; stroke-linejoin: miter"/>
   </g>
   <g id="line2d_46">
    <path d="M 362.492031 145.134138 
L 362.492031 184.702653 
" clip-path="url(#pc6778c985a)" style="fill: none; stroke: #4c4c4c"/>
   </g>
   <g id="line2d_47">
    <path d="M 362.492031 118.708664 
L 362.492031 97.993562 
" clip-path="url(#pc6778c985a)" style="fill: none; stroke: #4c4c4c"/>
   </g>
   <g id="line2d_48">
    <path d="M 354.998319 184.702653 
L 369.985744 184.702653 
" clip-path="url(#pc6778c985a)" style="fill: none; stroke: #4c4c4c; stroke-linecap: round"/>
   </g>
   <g id="line2d_49">
    <path d="M 354.998319 97.993562 
L 369.985744 97.993562 
" clip-path="url(#pc6778c985a)" style="fill: none; stroke: #4c4c4c; stroke-linecap: round"/>
   </g>
   <g id="line2d_50">
    <g clip-path="url(#pc6778c985a)">
     <use xlink:href="#mc4c0b90900" x="362.492031" y="189.819355" style="fill-opacity: 0; stroke: #4c4c4c"/>
     <use xlink:href="#mc4c0b90900" x="362.492031" y="189.692908" style="fill-opacity: 0; stroke: #4c4c4c"/>
     <use xlink:href="#mc4c0b90900" x="362.492031" y="187.076021" style="fill-opacity: 0; stroke: #4c4c4c"/>
     <use xlink:href="#mc4c0b90900" x="362.492031" y="214.267057" style="fill-opacity: 0; stroke: #4c4c4c"/>
     <use xlink:href="#mc4c0b90900" x="362.492031" y="199.266986" style="fill-opacity: 0; stroke: #4c4c4c"/>
     <use xlink:href="#mc4c0b90900" x="362.492031" y="239.97426" style="fill-opacity: 0; stroke: #4c4c4c"/>
     <use xlink:href="#mc4c0b90900" x="362.492031" y="309.812153" style="fill-opacity: 0; stroke: #4c4c4c"/>
    </g>
   </g>
   <g id="patch_13">
    <path d="M 384.973169 148.224796 
L 414.948019 148.224796 
L 414.948019 122.76853 
L 384.973169 122.76853 
L 384.973169 148.224796 
z
" clip-path="url(#pc6778c985a)" style="fill: #5875a4; stroke: #4c4c4c; stroke-linejoin: miter"/>
   </g>
   <g id="line2d_51">
    <path d="M 399.960594 148.224796 
L 399.960594 184.720819 
" clip-path="url(#pc6778c985a)" style="fill: none; stroke: #4c4c4c"/>
   </g>
   <g id="line2d_52">
    <path d="M 399.960594 122.76853 
L 399.960594 98.193411 
" clip-path="url(#pc6778c985a)" style="fill: none; stroke: #4c4c4c"/>
   </g>
   <g id="line2d_53">
    <path d="M 392.466881 184.720819 
L 407.454306 184.720819 
" clip-path="url(#pc6778c985a)" style="fill: none; stroke: #4c4c4c; stroke-linecap: round"/>
   </g>
   <g id="line2d_54">
    <path d="M 392.466881 98.193411 
L 407.454306 98.193411 
" clip-path="url(#pc6778c985a)" style="fill: none; stroke: #4c4c4c; stroke-linecap: round"/>
   </g>
   <g id="line2d_55">
    <g clip-path="url(#pc6778c985a)">
     <use xlink:href="#mc4c0b90900" x="399.960594" y="207.470987" style="fill-opacity: 0; stroke: #4c4c4c"/>
     <use xlink:href="#mc4c0b90900" x="399.960594" y="282.124953" style="fill-opacity: 0; stroke: #4c4c4c"/>
     <use xlink:href="#mc4c0b90900" x="399.960594" y="188.981918" style="fill-opacity: 0; stroke: #4c4c4c"/>
     <use xlink:href="#mc4c0b90900" x="399.960594" y="202.04756" style="fill-opacity: 0; stroke: #4c4c4c"/>
     <use xlink:href="#mc4c0b90900" x="399.960594" y="191.221522" style="fill-opacity: 0; stroke: #4c4c4c"/>
    </g>
   </g>
   <g id="patch_14">
    <path d="M 422.441731 156.941865 
L 452.416581 156.941865 
L 452.416581 124.90577 
L 422.441731 124.90577 
L 422.441731 156.941865 
z
" clip-path="url(#pc6778c985a)" style="fill: #5875a4; stroke: #4c4c4c; stroke-linejoin: miter"/>
   </g>
   <g id="line2d_56">
    <path d="M 437.429156 156.941865 
L 437.429156 202.905251 
" clip-path="url(#pc6778c985a)" style="fill: none; stroke: #4c4c4c"/>
   </g>
   <g id="line2d_57">
    <path d="M 437.429156 124.90577 
L 437.429156 79.82171 
" clip-path="url(#pc6778c985a)" style="fill: none; stroke: #4c4c4c"/>
   </g>
   <g id="line2d_58">
    <path d="M 429.935444 202.905251 
L 444.922869 202.905251 
" clip-path="url(#pc6778c985a)" style="fill: none; stroke: #4c4c4c; stroke-linecap: round"/>
   </g>
   <g id="line2d_59">
    <path d="M 429.935444 79.82171 
L 444.922869 79.82171 
" clip-path="url(#pc6778c985a)" style="fill: none; stroke: #4c4c4c; stroke-linecap: round"/>
   </g>
   <g id="line2d_60">
    <g clip-path="url(#pc6778c985a)">
     <use xlink:href="#mc4c0b90900" x="437.429156" y="246.742312" style="fill-opacity: 0; stroke: #4c4c4c"/>
     <use xlink:href="#mc4c0b90900" x="437.429156" y="230.558334" style="fill-opacity: 0; stroke: #4c4c4c"/>
     <use xlink:href="#mc4c0b90900" x="437.429156" y="278.034922" style="fill-opacity: 0; stroke: #4c4c4c"/>
     <use xlink:href="#mc4c0b90900" x="437.429156" y="206.360392" style="fill-opacity: 0; stroke: #4c4c4c"/>
     <use xlink:href="#mc4c0b90900" x="437.429156" y="287.776432" style="fill-opacity: 0; stroke: #4c4c4c"/>
     <use xlink:href="#mc4c0b90900" x="437.429156" y="75.533906" style="fill-opacity: 0; stroke: #4c4c4c"/>
    </g>
   </g>
   <g id="patch_15">
    <path d="M 459.910294 233.927145 
L 489.885144 233.927145 
L 489.885144 153.341919 
L 459.910294 153.341919 
L 459.910294 233.927145 
z
" clip-path="url(#pc6778c985a)" style="fill: #5875a4; stroke: #4c4c4c; stroke-linejoin: miter"/>
   </g>
   <g id="line2d_61">
    <path d="M 474.897719 233.927145 
L 474.897719 289 
" clip-path="url(#pc6778c985a)" style="fill: none; stroke: #4c4c4c"/>
   </g>
   <g id="line2d_62">
    <path d="M 474.897719 153.341919 
L 474.897719 63.337452 
" clip-path="url(#pc6778c985a)" style="fill: none; stroke: #4c4c4c"/>
   </g>
   <g id="line2d_63">
    <path clip-path="url(#pc6778c985a)" style="fill: none; stroke: #4c4c4c; stroke-linecap: round"/>
   </g>
   <g id="line2d_64">
    <path d="M 467.404006 63.337452 
L 482.391431 63.337452 
" clip-path="url(#pc6778c985a)" style="fill: none; stroke: #4c4c4c; stroke-linecap: round"/>
   </g>
   <g id="line2d_65">
    <g clip-path="url(#pc6778c985a)">
     <use xlink:href="#mc4c0b90900" x="474.897719" y="437.944973" style="fill-opacity: 0; stroke: #4c4c4c"/>
     <use xlink:href="#mc4c0b90900" x="474.897719" y="356.526" style="fill-opacity: 0; stroke: #4c4c4c"/>
     <use xlink:href="#mc4c0b90900" x="474.897719" y="386.203452" style="fill-opacity: 0; stroke: #4c4c4c"/>
    </g>
   </g>
   <g id="line2d_66">
    <path d="M 47.756106 127.6649 
L 77.730956 127.6649 
" clip-path="url(#pc6778c985a)" style="fill: none; stroke: #4c4c4c"/>
   </g>
   <g id="line2d_67">
    <path d="M 85.224669 129.058817 
L 115.199519 129.058817 
" clip-path="url(#pc6778c985a)" style="fill: none; stroke: #4c4c4c"/>
   </g>
   <g id="line2d_68">
    <path d="M 122.693231 136.94078 
L 152.668081 136.94078 
" clip-path="url(#pc6778c985a)" style="fill: none; stroke: #4c4c4c"/>
   </g>
   <g id="line2d_69">
    <path d="M 160.161794 183.648692 
L 190.136644 183.648692 
" clip-path="url(#pc6778c985a)" style="fill: none; stroke: #4c4c4c"/>
   </g>
   <g id="line2d_70">
    <path d="M 197.630356 140.738085 
L 227.605206 140.738085 
" clip-path="url(#pc6778c985a)" style="fill: none; stroke: #4c4c4c"/>
   </g>
   <g id="line2d_71">
    <path d="M 235.098919 168.185275 
L 265.073769 168.185275 
" clip-path="url(#pc6778c985a)" style="fill: none; stroke: #4c4c4c"/>
   </g>
   <g id="line2d_72">
    <path d="M 272.567481 184.749828 
L 302.542331 184.749828 
" clip-path="url(#pc6778c985a)" style="fill: none; stroke: #4c4c4c"/>
   </g>
   <g id="line2d_73">
    <path d="M 310.036044 249.996267 
L 340.010894 249.996267 
" clip-path="url(#pc6778c985a)" style="fill: none; stroke: #4c4c4c"/>
   </g>
   <g id="line2d_74">
    <path d="M 347.504606 127.986959 
L 377.479456 127.986959 
" clip-path="url(#pc6778c985a)" style="fill: none; stroke: #4c4c4c"/>
   </g>
   <g id="line2d_75">
    <path d="M 384.973169 130.576709 
L 414.948019 130.576709 
" clip-path="url(#pc6778c985a)" style="fill: none; stroke: #4c4c4c"/>
   </g>
   <g id="line2d_76">
    <path d="M 422.441731 140.825204 
L 452.416581 140.825204 
" clip-path="url(#pc6778c985a)" style="fill: none; stroke: #4c4c4c"/>
   </g>
   <g id="line2d_77">
    <path d="M 459.910294 191.497171 
L 489.885144 191.497171 
" clip-path="url(#pc6778c985a)" style="fill: none; stroke: #4c4c4c"/>
   </g>
   <g id="patch_16">
    <path d="M 44.00925 241.14 
L 44.00925 10.368 
" style="fill: none; stroke: #ffffff; stroke-linejoin: miter; stroke-linecap: square"/>
   </g>
   <g id="patch_17">
    <path d="M 493.632 241.14 
L 493.632 10.368 
" style="fill: none; stroke: #ffffff; stroke-linejoin: miter; stroke-linecap: square"/>
   </g>
   <g id="patch_18">
    <path d="M 44.00925 241.14 
L 493.632 241.14 
" style="fill: none; stroke: #ffffff; stroke-linejoin: miter; stroke-linecap: square"/>
   </g>
   <g id="patch_19">
    <path d="M 44.00925 10.368 
L 493.632 10.368 
" style="fill: none; stroke: #ffffff; stroke-linejoin: miter; stroke-linecap: square"/>
   </g>
  </g>
 </g>
 <defs>
  <clipPath id="pc6778c985a">
   <rect x="44.00925" y="10.368" width="449.62275" height="230.772"/>
  </clipPath>
 </defs>
</svg>
