<?xml version="1.0" encoding="utf-8" standalone="no"?>
<!DOCTYPE svg PUBLIC "-//W3C//DTD SVG 1.1//EN"
  "http://www.w3.org/Graphics/SVG/1.1/DTD/svg11.dtd">
<svg xmlns:xlink="http://www.w3.org/1999/xlink" width="504pt" height="288pt" viewBox="0 0 504 288" xmlns="http://www.w3.org/2000/svg" version="1.1">
 <metadata>
  <rdf:RDF xmlns:dc="http://purl.org/dc/elements/1.1/" xmlns:cc="http://creativecommons.org/ns#" xmlns:rdf="http://www.w3.org/1999/02/22-rdf-syntax-ns#">
   <cc:Work>
    <dc:type rdf:resource="http://purl.org/dc/dcmitype/StillImage"/>
    <dc:date>2024-08-30T18:37:34.719220</dc:date>
    <dc:format>image/svg+xml</dc:format>
    <dc:creator>
     <cc:Agent>
      <dc:title>Matplotlib v3.8.4, https://matplotlib.org/</dc:title>
     </cc:Agent>
    </dc:creator>
   </cc:Work>
  </rdf:RDF>
 </metadata>
 <defs>
  <style type="text/css">*{stroke-linejoin: round; stroke-linecap: butt}</style>
 </defs>
 <g id="figure_1">
  <g id="patch_1">
   <path d="M 0 288 
L 504 288 
L 504 0 
L 0 0 
z
" style="fill: #ffffff"/>
  </g>
  <g id="axes_1">
   <g id="patch_2">
    <path d="M 41.208 241.14 
L 493.632 241.14 
L 493.632 10.368 
L 41.208 10.368 
z
" style="fill: #eaeaf2"/>
   </g>
   <g id="matplotlib.axis_1">
    <g id="xtick_1">
     <g id="text_1">
      <!-- none -->
      <g style="fill: #262626" transform="translate(50.27175 255.738875) scale(0.088 -0.088)">
       <defs>
        <path id="ArialMT-6e" d="M 422 0 
L 422 3319 
L 928 3319 
L 928 2847 
Q 1294 3394 1984 3394 
Q 2284 3394 2536 3286 
Q 2788 3178 2913 3003 
Q 3038 2828 3088 2588 
Q 3119 2431 3119 2041 
L 3119 0 
L 2556 0 
L 2556 2019 
Q 2556 2363 2490 2533 
Q 2425 2703 2258 2804 
Q 2091 2906 1866 2906 
Q 1506 2906 1245 2678 
Q 984 2450 984 1813 
L 984 0 
L 422 0 
z
" transform="scale(0.015625)"/>
        <path id="ArialMT-6f" d="M 213 1659 
Q 213 2581 725 3025 
Q 1153 3394 1769 3394 
Q 2453 3394 2887 2945 
Q 3322 2497 3322 1706 
Q 3322 1066 3130 698 
Q 2938 331 2570 128 
Q 2203 -75 1769 -75 
Q 1072 -75 642 372 
Q 213 819 213 1659 
z
M 791 1659 
Q 791 1022 1069 705 
Q 1347 388 1769 388 
Q 2188 388 2466 706 
Q 2744 1025 2744 1678 
Q 2744 2294 2464 2611 
Q 2184 2928 1769 2928 
Q 1347 2928 1069 2612 
Q 791 2297 791 1659 
z
" transform="scale(0.015625)"/>
        <path id="ArialMT-65" d="M 2694 1069 
L 3275 997 
Q 3138 488 2766 206 
Q 2394 -75 1816 -75 
Q 1088 -75 661 373 
Q 234 822 234 1631 
Q 234 2469 665 2931 
Q 1097 3394 1784 3394 
Q 2450 3394 2872 2941 
Q 3294 2488 3294 1666 
Q 3294 1616 3291 1516 
L 816 1516 
Q 847 969 1125 678 
Q 1403 388 1819 388 
Q 2128 388 2347 550 
Q 2566 713 2694 1069 
z
M 847 1978 
L 2700 1978 
Q 2663 2397 2488 2606 
Q 2219 2931 1791 2931 
Q 1403 2931 1139 2672 
Q 875 2413 847 1978 
z
" transform="scale(0.015625)"/>
       </defs>
       <use xlink:href="#ArialMT-6e"/>
       <use xlink:href="#ArialMT-6f" x="55.615234"/>
       <use xlink:href="#ArialMT-6e" x="111.230469"/>
       <use xlink:href="#ArialMT-65" x="166.845703"/>
      </g>
      <!-- none -->
      <g style="fill: #262626" transform="translate(50.27175 265.046525) scale(0.088 -0.088)">
       <use xlink:href="#ArialMT-6e"/>
       <use xlink:href="#ArialMT-6f" x="55.615234"/>
       <use xlink:href="#ArialMT-6e" x="111.230469"/>
       <use xlink:href="#ArialMT-65" x="166.845703"/>
      </g>
     </g>
    </g>
    <g id="xtick_2">
     <g id="text_2">
      <!-- none -->
      <g style="fill: #262626" transform="translate(87.97375 255.738875) scale(0.088 -0.088)">
       <use xlink:href="#ArialMT-6e"/>
       <use xlink:href="#ArialMT-6f" x="55.615234"/>
       <use xlink:href="#ArialMT-6e" x="111.230469"/>
       <use xlink:href="#ArialMT-65" x="166.845703"/>
      </g>
      <!-- bass -->
      <g style="fill: #262626" transform="translate(88.467375 265.046525) scale(0.088 -0.088)">
       <defs>
        <path id="ArialMT-62" d="M 941 0 
L 419 0 
L 419 4581 
L 981 4581 
L 981 2947 
Q 1338 3394 1891 3394 
Q 2197 3394 2470 3270 
Q 2744 3147 2920 2923 
Q 3097 2700 3197 2384 
Q 3297 2069 3297 1709 
Q 3297 856 2875 390 
Q 2453 -75 1863 -75 
Q 1275 -75 941 416 
L 941 0 
z
M 934 1684 
Q 934 1088 1097 822 
Q 1363 388 1816 388 
Q 2184 388 2453 708 
Q 2722 1028 2722 1663 
Q 2722 2313 2464 2622 
Q 2206 2931 1841 2931 
Q 1472 2931 1203 2611 
Q 934 2291 934 1684 
z
" transform="scale(0.015625)"/>
        <path id="ArialMT-61" d="M 2588 409 
Q 2275 144 1986 34 
Q 1697 -75 1366 -75 
Q 819 -75 525 192 
Q 231 459 231 875 
Q 231 1119 342 1320 
Q 453 1522 633 1644 
Q 813 1766 1038 1828 
Q 1203 1872 1538 1913 
Q 2219 1994 2541 2106 
Q 2544 2222 2544 2253 
Q 2544 2597 2384 2738 
Q 2169 2928 1744 2928 
Q 1347 2928 1158 2789 
Q 969 2650 878 2297 
L 328 2372 
Q 403 2725 575 2942 
Q 747 3159 1072 3276 
Q 1397 3394 1825 3394 
Q 2250 3394 2515 3294 
Q 2781 3194 2906 3042 
Q 3031 2891 3081 2659 
Q 3109 2516 3109 2141 
L 3109 1391 
Q 3109 606 3145 398 
Q 3181 191 3288 0 
L 2700 0 
Q 2613 175 2588 409 
z
M 2541 1666 
Q 2234 1541 1622 1453 
Q 1275 1403 1131 1340 
Q 988 1278 909 1158 
Q 831 1038 831 891 
Q 831 666 1001 516 
Q 1172 366 1500 366 
Q 1825 366 2078 508 
Q 2331 650 2450 897 
Q 2541 1088 2541 1459 
L 2541 1666 
z
" transform="scale(0.015625)"/>
        <path id="ArialMT-73" d="M 197 991 
L 753 1078 
Q 800 744 1014 566 
Q 1228 388 1613 388 
Q 2000 388 2187 545 
Q 2375 703 2375 916 
Q 2375 1106 2209 1216 
Q 2094 1291 1634 1406 
Q 1016 1563 777 1677 
Q 538 1791 414 1992 
Q 291 2194 291 2438 
Q 291 2659 392 2848 
Q 494 3038 669 3163 
Q 800 3259 1026 3326 
Q 1253 3394 1513 3394 
Q 1903 3394 2198 3281 
Q 2494 3169 2634 2976 
Q 2775 2784 2828 2463 
L 2278 2388 
Q 2241 2644 2061 2787 
Q 1881 2931 1553 2931 
Q 1166 2931 1000 2803 
Q 834 2675 834 2503 
Q 834 2394 903 2306 
Q 972 2216 1119 2156 
Q 1203 2125 1616 2013 
Q 2213 1853 2448 1751 
Q 2684 1650 2818 1456 
Q 2953 1263 2953 975 
Q 2953 694 2789 445 
Q 2625 197 2315 61 
Q 2006 -75 1616 -75 
Q 969 -75 630 194 
Q 291 463 197 991 
z
" transform="scale(0.015625)"/>
       </defs>
       <use xlink:href="#ArialMT-62"/>
       <use xlink:href="#ArialMT-61" x="55.615234"/>
       <use xlink:href="#ArialMT-73" x="111.230469"/>
       <use xlink:href="#ArialMT-73" x="161.230469"/>
      </g>
     </g>
    </g>
    <g id="xtick_3">
     <g id="text_3">
      <!-- none -->
      <g style="fill: #262626" transform="translate(125.67575 255.738875) scale(0.088 -0.088)">
       <use xlink:href="#ArialMT-6e"/>
       <use xlink:href="#ArialMT-6f" x="55.615234"/>
       <use xlink:href="#ArialMT-6e" x="111.230469"/>
       <use xlink:href="#ArialMT-65" x="166.845703"/>
      </g>
      <!-- comp -->
      <g style="fill: #262626" transform="translate(124.704312 265.046525) scale(0.088 -0.088)">
       <defs>
        <path id="ArialMT-63" d="M 2588 1216 
L 3141 1144 
Q 3050 572 2676 248 
Q 2303 -75 1759 -75 
Q 1078 -75 664 370 
Q 250 816 250 1647 
Q 250 2184 428 2587 
Q 606 2991 970 3192 
Q 1334 3394 1763 3394 
Q 2303 3394 2647 3120 
Q 2991 2847 3088 2344 
L 2541 2259 
Q 2463 2594 2264 2762 
Q 2066 2931 1784 2931 
Q 1359 2931 1093 2626 
Q 828 2322 828 1663 
Q 828 994 1084 691 
Q 1341 388 1753 388 
Q 2084 388 2306 591 
Q 2528 794 2588 1216 
z
" transform="scale(0.015625)"/>
        <path id="ArialMT-6d" d="M 422 0 
L 422 3319 
L 925 3319 
L 925 2853 
Q 1081 3097 1340 3245 
Q 1600 3394 1931 3394 
Q 2300 3394 2536 3241 
Q 2772 3088 2869 2813 
Q 3263 3394 3894 3394 
Q 4388 3394 4653 3120 
Q 4919 2847 4919 2278 
L 4919 0 
L 4359 0 
L 4359 2091 
Q 4359 2428 4304 2576 
Q 4250 2725 4106 2815 
Q 3963 2906 3769 2906 
Q 3419 2906 3187 2673 
Q 2956 2441 2956 1928 
L 2956 0 
L 2394 0 
L 2394 2156 
Q 2394 2531 2256 2718 
Q 2119 2906 1806 2906 
Q 1569 2906 1367 2781 
Q 1166 2656 1075 2415 
Q 984 2175 984 1722 
L 984 0 
L 422 0 
z
" transform="scale(0.015625)"/>
        <path id="ArialMT-70" d="M 422 -1272 
L 422 3319 
L 934 3319 
L 934 2888 
Q 1116 3141 1344 3267 
Q 1572 3394 1897 3394 
Q 2322 3394 2647 3175 
Q 2972 2956 3137 2557 
Q 3303 2159 3303 1684 
Q 3303 1175 3120 767 
Q 2938 359 2589 142 
Q 2241 -75 1856 -75 
Q 1575 -75 1351 44 
Q 1128 163 984 344 
L 984 -1272 
L 422 -1272 
z
M 931 1641 
Q 931 1000 1190 694 
Q 1450 388 1819 388 
Q 2194 388 2461 705 
Q 2728 1022 2728 1688 
Q 2728 2322 2467 2637 
Q 2206 2953 1844 2953 
Q 1484 2953 1207 2617 
Q 931 2281 931 1641 
z
" transform="scale(0.015625)"/>
       </defs>
       <use xlink:href="#ArialMT-63"/>
       <use xlink:href="#ArialMT-6f" x="50"/>
       <use xlink:href="#ArialMT-6d" x="105.615234"/>
       <use xlink:href="#ArialMT-70" x="188.916016"/>
      </g>
     </g>
    </g>
    <g id="xtick_4">
     <g id="text_4">
      <!-- none -->
      <g style="fill: #262626" transform="translate(163.37775 255.738875) scale(0.088 -0.088)">
       <use xlink:href="#ArialMT-6e"/>
       <use xlink:href="#ArialMT-6f" x="55.615234"/>
       <use xlink:href="#ArialMT-6e" x="111.230469"/>
       <use xlink:href="#ArialMT-65" x="166.845703"/>
      </g>
      <!-- dist -->
      <g style="fill: #262626" transform="translate(166.318187 265.046525) scale(0.088 -0.088)">
       <defs>
        <path id="ArialMT-64" d="M 2575 0 
L 2575 419 
Q 2259 -75 1647 -75 
Q 1250 -75 917 144 
Q 584 363 401 755 
Q 219 1147 219 1656 
Q 219 2153 384 2558 
Q 550 2963 881 3178 
Q 1213 3394 1622 3394 
Q 1922 3394 2156 3267 
Q 2391 3141 2538 2938 
L 2538 4581 
L 3097 4581 
L 3097 0 
L 2575 0 
z
M 797 1656 
Q 797 1019 1065 703 
Q 1334 388 1700 388 
Q 2069 388 2326 689 
Q 2584 991 2584 1609 
Q 2584 2291 2321 2609 
Q 2059 2928 1675 2928 
Q 1300 2928 1048 2622 
Q 797 2316 797 1656 
z
" transform="scale(0.015625)"/>
        <path id="ArialMT-69" d="M 425 3934 
L 425 4581 
L 988 4581 
L 988 3934 
L 425 3934 
z
M 425 0 
L 425 3319 
L 988 3319 
L 988 0 
L 425 0 
z
" transform="scale(0.015625)"/>
        <path id="ArialMT-74" d="M 1650 503 
L 1731 6 
Q 1494 -44 1306 -44 
Q 1000 -44 831 53 
Q 663 150 594 308 
Q 525 466 525 972 
L 525 2881 
L 113 2881 
L 113 3319 
L 525 3319 
L 525 4141 
L 1084 4478 
L 1084 3319 
L 1650 3319 
L 1650 2881 
L 1084 2881 
L 1084 941 
Q 1084 700 1114 631 
Q 1144 563 1211 522 
Q 1278 481 1403 481 
Q 1497 481 1650 503 
z
" transform="scale(0.015625)"/>
       </defs>
       <use xlink:href="#ArialMT-64"/>
       <use xlink:href="#ArialMT-69" x="55.615234"/>
       <use xlink:href="#ArialMT-73" x="77.832031"/>
       <use xlink:href="#ArialMT-74" x="127.832031"/>
      </g>
     </g>
    </g>
    <g id="xtick_5">
     <g id="text_5">
      <!-- resamp -->
      <g style="fill: #262626" transform="translate(196.196438 255.738875) scale(0.088 -0.088)">
       <defs>
        <path id="ArialMT-72" d="M 416 0 
L 416 3319 
L 922 3319 
L 922 2816 
Q 1116 3169 1280 3281 
Q 1444 3394 1641 3394 
Q 1925 3394 2219 3213 
L 2025 2691 
Q 1819 2813 1613 2813 
Q 1428 2813 1281 2702 
Q 1134 2591 1072 2394 
Q 978 2094 978 1738 
L 978 0 
L 416 0 
z
" transform="scale(0.015625)"/>
       </defs>
       <use xlink:href="#ArialMT-72"/>
       <use xlink:href="#ArialMT-65" x="33.300781"/>
       <use xlink:href="#ArialMT-73" x="88.916016"/>
       <use xlink:href="#ArialMT-61" x="138.916016"/>
       <use xlink:href="#ArialMT-6d" x="194.53125"/>
       <use xlink:href="#ArialMT-70" x="277.832031"/>
      </g>
      <!-- none -->
      <g style="fill: #262626" transform="translate(201.07975 265.046525) scale(0.088 -0.088)">
       <use xlink:href="#ArialMT-6e"/>
       <use xlink:href="#ArialMT-6f" x="55.615234"/>
       <use xlink:href="#ArialMT-6e" x="111.230469"/>
       <use xlink:href="#ArialMT-65" x="166.845703"/>
      </g>
     </g>
    </g>
    <g id="xtick_6">
     <g id="text_6">
      <!-- resamp -->
      <g style="fill: #262626" transform="translate(233.898438 255.738875) scale(0.088 -0.088)">
       <use xlink:href="#ArialMT-72"/>
       <use xlink:href="#ArialMT-65" x="33.300781"/>
       <use xlink:href="#ArialMT-73" x="88.916016"/>
       <use xlink:href="#ArialMT-61" x="138.916016"/>
       <use xlink:href="#ArialMT-6d" x="194.53125"/>
       <use xlink:href="#ArialMT-70" x="277.832031"/>
      </g>
      <!-- bass -->
      <g style="fill: #262626" transform="translate(239.275375 265.046525) scale(0.088 -0.088)">
       <use xlink:href="#ArialMT-62"/>
       <use xlink:href="#ArialMT-61" x="55.615234"/>
       <use xlink:href="#ArialMT-73" x="111.230469"/>
       <use xlink:href="#ArialMT-73" x="161.230469"/>
      </g>
     </g>
    </g>
    <g id="xtick_7">
     <g id="text_7">
      <!-- resamp -->
      <g style="fill: #262626" transform="translate(271.600437 255.738875) scale(0.088 -0.088)">
       <use xlink:href="#ArialMT-72"/>
       <use xlink:href="#ArialMT-65" x="33.300781"/>
       <use xlink:href="#ArialMT-73" x="88.916016"/>
       <use xlink:href="#ArialMT-61" x="138.916016"/>
       <use xlink:href="#ArialMT-6d" x="194.53125"/>
       <use xlink:href="#ArialMT-70" x="277.832031"/>
      </g>
      <!-- comp -->
      <g style="fill: #262626" transform="translate(275.512312 265.046525) scale(0.088 -0.088)">
       <use xlink:href="#ArialMT-63"/>
       <use xlink:href="#ArialMT-6f" x="50"/>
       <use xlink:href="#ArialMT-6d" x="105.615234"/>
       <use xlink:href="#ArialMT-70" x="188.916016"/>
      </g>
     </g>
    </g>
    <g id="xtick_8">
     <g id="text_8">
      <!-- resamp -->
      <g style="fill: #262626" transform="translate(309.302437 255.738875) scale(0.088 -0.088)">
       <use xlink:href="#ArialMT-72"/>
       <use xlink:href="#ArialMT-65" x="33.300781"/>
       <use xlink:href="#ArialMT-73" x="88.916016"/>
       <use xlink:href="#ArialMT-61" x="138.916016"/>
       <use xlink:href="#ArialMT-6d" x="194.53125"/>
       <use xlink:href="#ArialMT-70" x="277.832031"/>
      </g>
      <!-- dist -->
      <g style="fill: #262626" transform="translate(317.126187 265.046525) scale(0.088 -0.088)">
       <use xlink:href="#ArialMT-64"/>
       <use xlink:href="#ArialMT-69" x="55.615234"/>
       <use xlink:href="#ArialMT-73" x="77.832031"/>
       <use xlink:href="#ArialMT-74" x="127.832031"/>
      </g>
     </g>
    </g>
    <g id="xtick_9">
     <g id="text_9">
      <!-- stretch -->
      <g style="fill: #262626" transform="translate(348.471562 255.738875) scale(0.088 -0.088)">
       <defs>
        <path id="ArialMT-68" d="M 422 0 
L 422 4581 
L 984 4581 
L 984 2938 
Q 1378 3394 1978 3394 
Q 2347 3394 2619 3248 
Q 2891 3103 3008 2847 
Q 3125 2591 3125 2103 
L 3125 0 
L 2563 0 
L 2563 2103 
Q 2563 2525 2380 2717 
Q 2197 2909 1863 2909 
Q 1613 2909 1392 2779 
Q 1172 2650 1078 2428 
Q 984 2206 984 1816 
L 984 0 
L 422 0 
z
" transform="scale(0.015625)"/>
       </defs>
       <use xlink:href="#ArialMT-73"/>
       <use xlink:href="#ArialMT-74" x="50"/>
       <use xlink:href="#ArialMT-72" x="77.783203"/>
       <use xlink:href="#ArialMT-65" x="111.083984"/>
       <use xlink:href="#ArialMT-74" x="166.699219"/>
       <use xlink:href="#ArialMT-63" x="194.482422"/>
       <use xlink:href="#ArialMT-68" x="244.482422"/>
      </g>
      <!-- none -->
      <g style="fill: #262626" transform="translate(351.88775 265.046525) scale(0.088 -0.088)">
       <use xlink:href="#ArialMT-6e"/>
       <use xlink:href="#ArialMT-6f" x="55.615234"/>
       <use xlink:href="#ArialMT-6e" x="111.230469"/>
       <use xlink:href="#ArialMT-65" x="166.845703"/>
      </g>
     </g>
    </g>
    <g id="xtick_10">
     <g id="text_10">
      <!-- stretch -->
      <g style="fill: #262626" transform="translate(386.173562 255.738875) scale(0.088 -0.088)">
       <use xlink:href="#ArialMT-73"/>
       <use xlink:href="#ArialMT-74" x="50"/>
       <use xlink:href="#ArialMT-72" x="77.783203"/>
       <use xlink:href="#ArialMT-65" x="111.083984"/>
       <use xlink:href="#ArialMT-74" x="166.699219"/>
       <use xlink:href="#ArialMT-63" x="194.482422"/>
       <use xlink:href="#ArialMT-68" x="244.482422"/>
      </g>
      <!-- bass -->
      <g style="fill: #262626" transform="translate(390.083375 265.046525) scale(0.088 -0.088)">
       <use xlink:href="#ArialMT-62"/>
       <use xlink:href="#ArialMT-61" x="55.615234"/>
       <use xlink:href="#ArialMT-73" x="111.230469"/>
       <use xlink:href="#ArialMT-73" x="161.230469"/>
      </g>
     </g>
    </g>
    <g id="xtick_11">
     <g id="text_11">
      <!-- stretch -->
      <g style="fill: #262626" transform="translate(423.875562 255.738875) scale(0.088 -0.088)">
       <use xlink:href="#ArialMT-73"/>
       <use xlink:href="#ArialMT-74" x="50"/>
       <use xlink:href="#ArialMT-72" x="77.783203"/>
       <use xlink:href="#ArialMT-65" x="111.083984"/>
       <use xlink:href="#ArialMT-74" x="166.699219"/>
       <use xlink:href="#ArialMT-63" x="194.482422"/>
       <use xlink:href="#ArialMT-68" x="244.482422"/>
      </g>
      <!-- comp -->
      <g style="fill: #262626" transform="translate(426.320312 265.046525) scale(0.088 -0.088)">
       <use xlink:href="#ArialMT-63"/>
       <use xlink:href="#ArialMT-6f" x="50"/>
       <use xlink:href="#ArialMT-6d" x="105.615234"/>
       <use xlink:href="#ArialMT-70" x="188.916016"/>
      </g>
     </g>
    </g>
    <g id="xtick_12">
     <g id="text_12">
      <!-- stretch -->
      <g style="fill: #262626" transform="translate(461.577562 255.738875) scale(0.088 -0.088)">
       <use xlink:href="#ArialMT-73"/>
       <use xlink:href="#ArialMT-74" x="50"/>
       <use xlink:href="#ArialMT-72" x="77.783203"/>
       <use xlink:href="#ArialMT-65" x="111.083984"/>
       <use xlink:href="#ArialMT-74" x="166.699219"/>
       <use xlink:href="#ArialMT-63" x="194.482422"/>
       <use xlink:href="#ArialMT-68" x="244.482422"/>
      </g>
      <!-- dist -->
      <g style="fill: #262626" transform="translate(467.934187 265.046525) scale(0.088 -0.088)">
       <use xlink:href="#ArialMT-64"/>
       <use xlink:href="#ArialMT-69" x="55.615234"/>
       <use xlink:href="#ArialMT-73" x="77.832031"/>
       <use xlink:href="#ArialMT-74" x="127.832031"/>
      </g>
     </g>
    </g>
    <g id="text_13">
     <!-- transformation -->
     <g style="fill: #262626" transform="translate(236.74275 277.667025) scale(0.096 -0.096)">
      <defs>
       <path id="ArialMT-66" d="M 556 0 
L 556 2881 
L 59 2881 
L 59 3319 
L 556 3319 
L 556 3672 
Q 556 4006 616 4169 
Q 697 4388 901 4523 
Q 1106 4659 1475 4659 
Q 1713 4659 2000 4603 
L 1916 4113 
Q 1741 4144 1584 4144 
Q 1328 4144 1222 4034 
Q 1116 3925 1116 3625 
L 1116 3319 
L 1763 3319 
L 1763 2881 
L 1116 2881 
L 1116 0 
L 556 0 
z
" transform="scale(0.015625)"/>
      </defs>
      <use xlink:href="#ArialMT-74"/>
      <use xlink:href="#ArialMT-72" x="27.783203"/>
      <use xlink:href="#ArialMT-61" x="61.083984"/>
      <use xlink:href="#ArialMT-6e" x="116.699219"/>
      <use xlink:href="#ArialMT-73" x="172.314453"/>
      <use xlink:href="#ArialMT-66" x="222.314453"/>
      <use xlink:href="#ArialMT-6f" x="250.097656"/>
      <use xlink:href="#ArialMT-72" x="305.712891"/>
      <use xlink:href="#ArialMT-6d" x="339.013672"/>
      <use xlink:href="#ArialMT-61" x="422.314453"/>
      <use xlink:href="#ArialMT-74" x="477.929688"/>
      <use xlink:href="#ArialMT-69" x="505.712891"/>
      <use xlink:href="#ArialMT-6f" x="527.929688"/>
      <use xlink:href="#ArialMT-6e" x="583.544922"/>
     </g>
    </g>
   </g>
   <g id="matplotlib.axis_2">
    <g id="ytick_1">
     <g id="line2d_1">
      <path d="M 41.208 232.722528 
L 493.632 232.722528 
" clip-path="url(#p43955eb1da)" style="fill: none; stroke: #ffffff; stroke-width: 0.8; stroke-linecap: round"/>
     </g>
     <g id="text_14">
      <!-- 0 -->
      <g style="fill: #262626" transform="translate(28.014375 235.871966) scale(0.088 -0.088)">
       <defs>
        <path id="ArialMT-30" d="M 266 2259 
Q 266 3072 433 3567 
Q 600 4063 929 4331 
Q 1259 4600 1759 4600 
Q 2128 4600 2406 4451 
Q 2684 4303 2865 4023 
Q 3047 3744 3150 3342 
Q 3253 2941 3253 2259 
Q 3253 1453 3087 958 
Q 2922 463 2592 192 
Q 2263 -78 1759 -78 
Q 1097 -78 719 397 
Q 266 969 266 2259 
z
M 844 2259 
Q 844 1131 1108 757 
Q 1372 384 1759 384 
Q 2147 384 2411 759 
Q 2675 1134 2675 2259 
Q 2675 3391 2411 3762 
Q 2147 4134 1753 4134 
Q 1366 4134 1134 3806 
Q 844 3388 844 2259 
z
" transform="scale(0.015625)"/>
       </defs>
       <use xlink:href="#ArialMT-30"/>
      </g>
     </g>
    </g>
    <g id="ytick_2">
     <g id="line2d_2">
      <path d="M 41.208 186.404897 
L 493.632 186.404897 
" clip-path="url(#p43955eb1da)" style="fill: none; stroke: #ffffff; stroke-width: 0.8; stroke-linecap: round"/>
     </g>
     <g id="text_15">
      <!-- 5 -->
      <g style="fill: #262626" transform="translate(28.014375 189.554335) scale(0.088 -0.088)">
       <defs>
        <path id="ArialMT-35" d="M 266 1200 
L 856 1250 
Q 922 819 1161 601 
Q 1400 384 1738 384 
Q 2144 384 2425 690 
Q 2706 997 2706 1503 
Q 2706 1984 2436 2262 
Q 2166 2541 1728 2541 
Q 1456 2541 1237 2417 
Q 1019 2294 894 2097 
L 366 2166 
L 809 4519 
L 3088 4519 
L 3088 3981 
L 1259 3981 
L 1013 2750 
Q 1425 3038 1878 3038 
Q 2478 3038 2890 2622 
Q 3303 2206 3303 1553 
Q 3303 931 2941 478 
Q 2500 -78 1738 -78 
Q 1113 -78 717 272 
Q 322 622 266 1200 
z
" transform="scale(0.015625)"/>
       </defs>
       <use xlink:href="#ArialMT-35"/>
      </g>
     </g>
    </g>
    <g id="ytick_3">
     <g id="line2d_3">
      <path d="M 41.208 140.087266 
L 493.632 140.087266 
" clip-path="url(#p43955eb1da)" style="fill: none; stroke: #ffffff; stroke-width: 0.8; stroke-linecap: round"/>
     </g>
     <g id="text_16">
      <!-- 10 -->
      <g style="fill: #262626" transform="translate(23.12075 143.236703) scale(0.088 -0.088)">
       <defs>
        <path id="ArialMT-31" d="M 2384 0 
L 1822 0 
L 1822 3584 
Q 1619 3391 1289 3197 
Q 959 3003 697 2906 
L 697 3450 
Q 1169 3672 1522 3987 
Q 1875 4303 2022 4600 
L 2384 4600 
L 2384 0 
z
" transform="scale(0.015625)"/>
       </defs>
       <use xlink:href="#ArialMT-31"/>
       <use xlink:href="#ArialMT-30" x="55.615234"/>
      </g>
     </g>
    </g>
    <g id="ytick_4">
     <g id="line2d_4">
      <path d="M 41.208 93.769635 
L 493.632 93.769635 
" clip-path="url(#p43955eb1da)" style="fill: none; stroke: #ffffff; stroke-width: 0.8; stroke-linecap: round"/>
     </g>
     <g id="text_17">
      <!-- 15 -->
      <g style="fill: #262626" transform="translate(23.12075 96.919072) scale(0.088 -0.088)">
       <use xlink:href="#ArialMT-31"/>
       <use xlink:href="#ArialMT-35" x="55.615234"/>
      </g>
     </g>
    </g>
    <g id="ytick_5">
     <g id="line2d_5">
      <path d="M 41.208 47.452004 
L 493.632 47.452004 
" clip-path="url(#p43955eb1da)" style="fill: none; stroke: #ffffff; stroke-width: 0.8; stroke-linecap: round"/>
     </g>
     <g id="text_18">
      <!-- 20 -->
      <g style="fill: #262626" transform="translate(23.12075 50.601441) scale(0.088 -0.088)">
       <defs>
        <path id="ArialMT-32" d="M 3222 541 
L 3222 0 
L 194 0 
Q 188 203 259 391 
Q 375 700 629 1000 
Q 884 1300 1366 1694 
Q 2113 2306 2375 2664 
Q 2638 3022 2638 3341 
Q 2638 3675 2398 3904 
Q 2159 4134 1775 4134 
Q 1369 4134 1125 3890 
Q 881 3647 878 3216 
L 300 3275 
Q 359 3922 746 4261 
Q 1134 4600 1788 4600 
Q 2447 4600 2831 4234 
Q 3216 3869 3216 3328 
Q 3216 3053 3103 2787 
Q 2991 2522 2730 2228 
Q 2469 1934 1863 1422 
Q 1356 997 1212 845 
Q 1069 694 975 541 
L 3222 541 
z
" transform="scale(0.015625)"/>
       </defs>
       <use xlink:href="#ArialMT-32"/>
       <use xlink:href="#ArialMT-30" x="55.615234"/>
      </g>
     </g>
    </g>
    <g id="text_19">
     <!-- Warp error [s] -->
     <g style="fill: #262626" transform="translate(17.21275 154.90875) rotate(-90) scale(0.096 -0.096)">
      <defs>
       <path id="ArialMT-57" d="M 1294 0 
L 78 4581 
L 700 4581 
L 1397 1578 
Q 1509 1106 1591 641 
Q 1766 1375 1797 1488 
L 2669 4581 
L 3400 4581 
L 4056 2263 
Q 4303 1400 4413 641 
Q 4500 1075 4641 1638 
L 5359 4581 
L 5969 4581 
L 4713 0 
L 4128 0 
L 3163 3491 
Q 3041 3928 3019 4028 
Q 2947 3713 2884 3491 
L 1913 0 
L 1294 0 
z
" transform="scale(0.015625)"/>
       <path id="ArialMT-20" transform="scale(0.015625)"/>
       <path id="ArialMT-5b" d="M 434 -1272 
L 434 4581 
L 1675 4581 
L 1675 4116 
L 997 4116 
L 997 -806 
L 1675 -806 
L 1675 -1272 
L 434 -1272 
z
" transform="scale(0.015625)"/>
       <path id="ArialMT-5d" d="M 1363 -1272 
L 122 -1272 
L 122 -806 
L 800 -806 
L 800 4116 
L 122 4116 
L 122 4581 
L 1363 4581 
L 1363 -1272 
z
" transform="scale(0.015625)"/>
      </defs>
      <use xlink:href="#ArialMT-57"/>
      <use xlink:href="#ArialMT-61" x="90.634766"/>
      <use xlink:href="#ArialMT-72" x="146.25"/>
      <use xlink:href="#ArialMT-70" x="179.550781"/>
      <use xlink:href="#ArialMT-20" x="235.166016"/>
      <use xlink:href="#ArialMT-65" x="262.949219"/>
      <use xlink:href="#ArialMT-72" x="318.564453"/>
      <use xlink:href="#ArialMT-72" x="351.865234"/>
      <use xlink:href="#ArialMT-6f" x="385.166016"/>
      <use xlink:href="#ArialMT-72" x="440.78125"/>
      <use xlink:href="#ArialMT-20" x="474.082031"/>
      <use xlink:href="#ArialMT-5b" x="501.865234"/>
      <use xlink:href="#ArialMT-73" x="529.648438"/>
      <use xlink:href="#ArialMT-5d" x="579.648438"/>
     </g>
    </g>
   </g>
   <g id="patch_3">
    <path d="M 60.059 232.722528 
L 60.059 232.722528 
L 60.059 232.722528 
L 60.059 232.722528 
z
" clip-path="url(#p43955eb1da)" style="fill: #5875a4; stroke: #4c4c4c; stroke-width: 0.8; stroke-linejoin: miter"/>
   </g>
   <g id="patch_4">
    <path d="M 44.9782 217.95294 
L 75.1398 217.95294 
L 75.1398 201.167661 
L 44.9782 201.167661 
L 44.9782 217.95294 
z
" clip-path="url(#p43955eb1da)" style="fill: #5875a4; stroke: #4c4c4c; stroke-linejoin: miter"/>
   </g>
   <g id="line2d_6">
    <path d="M 60.059 217.95294 
L 60.059 230.650364 
" clip-path="url(#p43955eb1da)" style="fill: none; stroke: #4c4c4c"/>
   </g>
   <g id="line2d_7">
    <path d="M 60.059 201.167661 
L 60.059 177.74576 
" clip-path="url(#p43955eb1da)" style="fill: none; stroke: #4c4c4c"/>
   </g>
   <g id="line2d_8">
    <path d="M 52.5186 230.650364 
L 67.5994 230.650364 
" clip-path="url(#p43955eb1da)" style="fill: none; stroke: #4c4c4c; stroke-linecap: round"/>
   </g>
   <g id="line2d_9">
    <path d="M 52.5186 177.74576 
L 67.5994 177.74576 
" clip-path="url(#p43955eb1da)" style="fill: none; stroke: #4c4c4c; stroke-linecap: round"/>
   </g>
   <g id="line2d_10">
    <defs>
     <path id="mec5d265361" d="M 0 0.5 
C 0.132602 0.5 0.25979 0.447317 0.353553 0.353553 
C 0.447317 0.25979 0.5 0.132602 0.5 0 
C 0.5 -0.132602 0.447317 -0.25979 0.353553 -0.353553 
C 0.25979 -0.447317 0.132602 -0.5 0 -0.5 
C -0.132602 -0.5 -0.25979 -0.447317 -0.353553 -0.353553 
C -0.447317 -0.25979 -0.5 -0.132602 -0.5 0 
C -0.5 0.132602 -0.447317 0.25979 -0.353553 0.353553 
C -0.25979 0.447317 -0.132602 0.5 0 0.5 
z
" style="stroke: #4c4c4c"/>
    </defs>
    <g clip-path="url(#p43955eb1da)">
     <use xlink:href="#mec5d265361" x="60.059" y="161.871432" style="fill-opacity: 0; stroke: #4c4c4c"/>
     <use xlink:href="#mec5d265361" x="60.059" y="174.771078" style="fill-opacity: 0; stroke: #4c4c4c"/>
     <use xlink:href="#mec5d265361" x="60.059" y="144.989897" style="fill-opacity: 0; stroke: #4c4c4c"/>
     <use xlink:href="#mec5d265361" x="60.059" y="153.954508" style="fill-opacity: 0; stroke: #4c4c4c"/>
    </g>
   </g>
   <g id="patch_5">
    <path d="M 82.6802 218.812488 
L 112.8418 218.812488 
L 112.8418 202.451115 
L 82.6802 202.451115 
L 82.6802 218.812488 
z
" clip-path="url(#p43955eb1da)" style="fill: #5875a4; stroke: #4c4c4c; stroke-linejoin: miter"/>
   </g>
   <g id="line2d_11">
    <path d="M 97.761 218.812488 
L 97.761 230.298794 
" clip-path="url(#p43955eb1da)" style="fill: none; stroke: #4c4c4c"/>
   </g>
   <g id="line2d_12">
    <path d="M 97.761 202.451115 
L 97.761 185.100802 
" clip-path="url(#p43955eb1da)" style="fill: none; stroke: #4c4c4c"/>
   </g>
   <g id="line2d_13">
    <path d="M 90.2206 230.298794 
L 105.3014 230.298794 
" clip-path="url(#p43955eb1da)" style="fill: none; stroke: #4c4c4c; stroke-linecap: round"/>
   </g>
   <g id="line2d_14">
    <path d="M 90.2206 185.100802 
L 105.3014 185.100802 
" clip-path="url(#p43955eb1da)" style="fill: none; stroke: #4c4c4c; stroke-linecap: round"/>
   </g>
   <g id="line2d_15">
    <g clip-path="url(#p43955eb1da)">
     <use xlink:href="#mec5d265361" x="97.761" y="169.453947" style="fill-opacity: 0; stroke: #4c4c4c"/>
     <use xlink:href="#mec5d265361" x="97.761" y="173.861396" style="fill-opacity: 0; stroke: #4c4c4c"/>
     <use xlink:href="#mec5d265361" x="97.761" y="176.684354" style="fill-opacity: 0; stroke: #4c4c4c"/>
     <use xlink:href="#mec5d265361" x="97.761" y="164.297704" style="fill-opacity: 0; stroke: #4c4c4c"/>
    </g>
   </g>
   <g id="patch_6">
    <path d="M 120.3822 220.993421 
L 150.5438 220.993421 
L 150.5438 199.072791 
L 120.3822 199.072791 
L 120.3822 220.993421 
z
" clip-path="url(#p43955eb1da)" style="fill: #5875a4; stroke: #4c4c4c; stroke-linejoin: miter"/>
   </g>
   <g id="line2d_16">
    <path d="M 135.463 220.993421 
L 135.463 230.501438 
" clip-path="url(#p43955eb1da)" style="fill: none; stroke: #4c4c4c"/>
   </g>
   <g id="line2d_17">
    <path d="M 135.463 199.072791 
L 135.463 167.966686 
" clip-path="url(#p43955eb1da)" style="fill: none; stroke: #4c4c4c"/>
   </g>
   <g id="line2d_18">
    <path d="M 127.9226 230.501438 
L 143.0034 230.501438 
" clip-path="url(#p43955eb1da)" style="fill: none; stroke: #4c4c4c; stroke-linecap: round"/>
   </g>
   <g id="line2d_19">
    <path d="M 127.9226 167.966686 
L 143.0034 167.966686 
" clip-path="url(#p43955eb1da)" style="fill: none; stroke: #4c4c4c; stroke-linecap: round"/>
   </g>
   <g id="line2d_20">
    <g clip-path="url(#p43955eb1da)">
     <use xlink:href="#mec5d265361" x="135.463" y="145.181575" style="fill-opacity: 0; stroke: #4c4c4c"/>
     <use xlink:href="#mec5d265361" x="135.463" y="162.113387" style="fill-opacity: 0; stroke: #4c4c4c"/>
     <use xlink:href="#mec5d265361" x="135.463" y="155.237971" style="fill-opacity: 0; stroke: #4c4c4c"/>
     <use xlink:href="#mec5d265361" x="135.463" y="161.133957" style="fill-opacity: 0; stroke: #4c4c4c"/>
    </g>
   </g>
   <g id="patch_7">
    <path d="M 158.0842 191.997497 
L 188.2458 191.997497 
L 188.2458 130.074018 
L 158.0842 130.074018 
L 158.0842 191.997497 
z
" clip-path="url(#p43955eb1da)" style="fill: #5875a4; stroke: #4c4c4c; stroke-linejoin: miter"/>
   </g>
   <g id="line2d_21">
    <path d="M 173.165 191.997497 
L 173.165 222.990145 
" clip-path="url(#p43955eb1da)" style="fill: none; stroke: #4c4c4c"/>
   </g>
   <g id="line2d_22">
    <path d="M 173.165 130.074018 
L 173.165 61.617392 
" clip-path="url(#p43955eb1da)" style="fill: none; stroke: #4c4c4c"/>
   </g>
   <g id="line2d_23">
    <path d="M 165.6246 222.990145 
L 180.7054 222.990145 
" clip-path="url(#p43955eb1da)" style="fill: none; stroke: #4c4c4c; stroke-linecap: round"/>
   </g>
   <g id="line2d_24">
    <path d="M 165.6246 61.617392 
L 180.7054 61.617392 
" clip-path="url(#p43955eb1da)" style="fill: none; stroke: #4c4c4c; stroke-linecap: round"/>
   </g>
   <g id="line2d_25"/>
   <g id="patch_8">
    <path d="M 195.7862 211.564352 
L 225.9478 211.564352 
L 225.9478 149.146296 
L 195.7862 149.146296 
L 195.7862 211.564352 
z
" clip-path="url(#p43955eb1da)" style="fill: #5875a4; stroke: #4c4c4c; stroke-linejoin: miter"/>
   </g>
   <g id="line2d_26">
    <path d="M 210.867 211.564352 
L 210.867 227.913512 
" clip-path="url(#p43955eb1da)" style="fill: none; stroke: #4c4c4c"/>
   </g>
   <g id="line2d_27">
    <path d="M 210.867 149.146296 
L 210.867 64.440439 
" clip-path="url(#p43955eb1da)" style="fill: none; stroke: #4c4c4c"/>
   </g>
   <g id="line2d_28">
    <path d="M 203.3266 227.913512 
L 218.4074 227.913512 
" clip-path="url(#p43955eb1da)" style="fill: none; stroke: #4c4c4c; stroke-linecap: round"/>
   </g>
   <g id="line2d_29">
    <path d="M 203.3266 64.440439 
L 218.4074 64.440439 
" clip-path="url(#p43955eb1da)" style="fill: none; stroke: #4c4c4c; stroke-linecap: round"/>
   </g>
   <g id="line2d_30">
    <g clip-path="url(#p43955eb1da)">
     <use xlink:href="#mec5d265361" x="210.867" y="40.00658" style="fill-opacity: 0; stroke: #4c4c4c"/>
    </g>
   </g>
   <g id="patch_9">
    <path d="M 233.4882 213.465609 
L 263.6498 213.465609 
L 263.6498 135.369708 
L 233.4882 135.369708 
L 233.4882 213.465609 
z
" clip-path="url(#p43955eb1da)" style="fill: #5875a4; stroke: #4c4c4c; stroke-linejoin: miter"/>
   </g>
   <g id="line2d_31">
    <path d="M 248.569 213.465609 
L 248.569 229.86075 
" clip-path="url(#p43955eb1da)" style="fill: none; stroke: #4c4c4c"/>
   </g>
   <g id="line2d_32">
    <path d="M 248.569 135.369708 
L 248.569 37.810253 
" clip-path="url(#p43955eb1da)" style="fill: none; stroke: #4c4c4c"/>
   </g>
   <g id="line2d_33">
    <path d="M 241.0286 229.86075 
L 256.1094 229.86075 
" clip-path="url(#p43955eb1da)" style="fill: none; stroke: #4c4c4c; stroke-linecap: round"/>
   </g>
   <g id="line2d_34">
    <path d="M 241.0286 37.810253 
L 256.1094 37.810253 
" clip-path="url(#p43955eb1da)" style="fill: none; stroke: #4c4c4c; stroke-linecap: round"/>
   </g>
   <g id="line2d_35"/>
   <g id="patch_10">
    <path d="M 271.1902 212.941199 
L 301.3518 212.941199 
L 301.3518 152.102066 
L 271.1902 152.102066 
L 271.1902 212.941199 
z
" clip-path="url(#p43955eb1da)" style="fill: #5875a4; stroke: #4c4c4c; stroke-linejoin: miter"/>
   </g>
   <g id="line2d_36">
    <path d="M 286.271 212.941199 
L 286.271 224.735328 
" clip-path="url(#p43955eb1da)" style="fill: none; stroke: #4c4c4c"/>
   </g>
   <g id="line2d_37">
    <path d="M 286.271 152.102066 
L 286.271 70.620148 
" clip-path="url(#p43955eb1da)" style="fill: none; stroke: #4c4c4c"/>
   </g>
   <g id="line2d_38">
    <path d="M 278.7306 224.735328 
L 293.8114 224.735328 
" clip-path="url(#p43955eb1da)" style="fill: none; stroke: #4c4c4c; stroke-linecap: round"/>
   </g>
   <g id="line2d_39">
    <path d="M 278.7306 70.620148 
L 293.8114 70.620148 
" clip-path="url(#p43955eb1da)" style="fill: none; stroke: #4c4c4c; stroke-linecap: round"/>
   </g>
   <g id="line2d_40">
    <g clip-path="url(#p43955eb1da)">
     <use xlink:href="#mec5d265361" x="286.271" y="36.687865" style="fill-opacity: 0; stroke: #4c4c4c"/>
    </g>
   </g>
   <g id="patch_11">
    <path d="M 308.8922 148.043626 
L 339.0538 148.043626 
L 339.0538 80.191693 
L 308.8922 80.191693 
L 308.8922 148.043626 
z
" clip-path="url(#p43955eb1da)" style="fill: #5875a4; stroke: #4c4c4c; stroke-linejoin: miter"/>
   </g>
   <g id="line2d_41">
    <path d="M 323.973 148.043626 
L 323.973 210.699419 
" clip-path="url(#p43955eb1da)" style="fill: none; stroke: #4c4c4c"/>
   </g>
   <g id="line2d_42">
    <path d="M 323.973 80.191693 
L 323.973 20.857636 
" clip-path="url(#p43955eb1da)" style="fill: none; stroke: #4c4c4c"/>
   </g>
   <g id="line2d_43">
    <path d="M 316.4326 210.699419 
L 331.5134 210.699419 
" clip-path="url(#p43955eb1da)" style="fill: none; stroke: #4c4c4c; stroke-linecap: round"/>
   </g>
   <g id="line2d_44">
    <path d="M 316.4326 20.857636 
L 331.5134 20.857636 
" clip-path="url(#p43955eb1da)" style="fill: none; stroke: #4c4c4c; stroke-linecap: round"/>
   </g>
   <g id="line2d_45"/>
   <g id="patch_12">
    <path d="M 346.5942 216.727157 
L 376.7558 216.727157 
L 376.7558 200.588354 
L 346.5942 200.588354 
L 346.5942 216.727157 
z
" clip-path="url(#p43955eb1da)" style="fill: #5875a4; stroke: #4c4c4c; stroke-linejoin: miter"/>
   </g>
   <g id="line2d_46">
    <path d="M 361.675 216.727157 
L 361.675 228.706977 
" clip-path="url(#p43955eb1da)" style="fill: none; stroke: #4c4c4c"/>
   </g>
   <g id="line2d_47">
    <path d="M 361.675 200.588354 
L 361.675 178.177954 
" clip-path="url(#p43955eb1da)" style="fill: none; stroke: #4c4c4c"/>
   </g>
   <g id="line2d_48">
    <path d="M 354.1346 228.706977 
L 369.2154 228.706977 
" clip-path="url(#p43955eb1da)" style="fill: none; stroke: #4c4c4c; stroke-linecap: round"/>
   </g>
   <g id="line2d_49">
    <path d="M 354.1346 178.177954 
L 369.2154 178.177954 
" clip-path="url(#p43955eb1da)" style="fill: none; stroke: #4c4c4c; stroke-linecap: round"/>
   </g>
   <g id="line2d_50">
    <g clip-path="url(#p43955eb1da)">
     <use xlink:href="#mec5d265361" x="361.675" y="158.806949" style="fill-opacity: 0; stroke: #4c4c4c"/>
     <use xlink:href="#mec5d265361" x="361.675" y="165.165989" style="fill-opacity: 0; stroke: #4c4c4c"/>
     <use xlink:href="#mec5d265361" x="361.675" y="164.924705" style="fill-opacity: 0; stroke: #4c4c4c"/>
     <use xlink:href="#mec5d265361" x="361.675" y="147.065537" style="fill-opacity: 0; stroke: #4c4c4c"/>
     <use xlink:href="#mec5d265361" x="361.675" y="153.029986" style="fill-opacity: 0; stroke: #4c4c4c"/>
     <use xlink:href="#mec5d265361" x="361.675" y="167.643124" style="fill-opacity: 0; stroke: #4c4c4c"/>
     <use xlink:href="#mec5d265361" x="361.675" y="125.631673" style="fill-opacity: 0; stroke: #4c4c4c"/>
     <use xlink:href="#mec5d265361" x="361.675" y="158.839859" style="fill-opacity: 0; stroke: #4c4c4c"/>
     <use xlink:href="#mec5d265361" x="361.675" y="175.123624" style="fill-opacity: 0; stroke: #4c4c4c"/>
     <use xlink:href="#mec5d265361" x="361.675" y="65.780717" style="fill-opacity: 0; stroke: #4c4c4c"/>
    </g>
   </g>
   <g id="patch_13">
    <path d="M 384.2962 218.760943 
L 414.4578 218.760943 
L 414.4578 202.879132 
L 384.2962 202.879132 
L 384.2962 218.760943 
z
" clip-path="url(#p43955eb1da)" style="fill: #5875a4; stroke: #4c4c4c; stroke-linejoin: miter"/>
   </g>
   <g id="line2d_51">
    <path d="M 399.377 218.760943 
L 399.377 229.677826 
" clip-path="url(#p43955eb1da)" style="fill: none; stroke: #4c4c4c"/>
   </g>
   <g id="line2d_52">
    <path d="M 399.377 202.879132 
L 399.377 179.328536 
" clip-path="url(#p43955eb1da)" style="fill: none; stroke: #4c4c4c"/>
   </g>
   <g id="line2d_53">
    <path d="M 391.8366 229.677826 
L 406.9174 229.677826 
" clip-path="url(#p43955eb1da)" style="fill: none; stroke: #4c4c4c; stroke-linecap: round"/>
   </g>
   <g id="line2d_54">
    <path d="M 391.8366 179.328536 
L 406.9174 179.328536 
" clip-path="url(#p43955eb1da)" style="fill: none; stroke: #4c4c4c; stroke-linecap: round"/>
   </g>
   <g id="line2d_55">
    <g clip-path="url(#p43955eb1da)">
     <use xlink:href="#mec5d265361" x="399.377" y="175.024129" style="fill-opacity: 0; stroke: #4c4c4c"/>
     <use xlink:href="#mec5d265361" x="399.377" y="166.849812" style="fill-opacity: 0; stroke: #4c4c4c"/>
     <use xlink:href="#mec5d265361" x="399.377" y="78.17623" style="fill-opacity: 0; stroke: #4c4c4c"/>
     <use xlink:href="#mec5d265361" x="399.377" y="111.396077" style="fill-opacity: 0; stroke: #4c4c4c"/>
     <use xlink:href="#mec5d265361" x="399.377" y="133.072029" style="fill-opacity: 0; stroke: #4c4c4c"/>
     <use xlink:href="#mec5d265361" x="399.377" y="168.308094" style="fill-opacity: 0; stroke: #4c4c4c"/>
    </g>
   </g>
   <g id="patch_14">
    <path d="M 421.9982 218.92605 
L 452.1598 218.92605 
L 452.1598 196.744481 
L 421.9982 196.744481 
L 421.9982 218.92605 
z
" clip-path="url(#p43955eb1da)" style="fill: #5875a4; stroke: #4c4c4c; stroke-linejoin: miter"/>
   </g>
   <g id="line2d_56">
    <path d="M 437.079 218.92605 
L 437.079 228.075159 
" clip-path="url(#p43955eb1da)" style="fill: none; stroke: #4c4c4c"/>
   </g>
   <g id="line2d_57">
    <path d="M 437.079 196.744481 
L 437.079 165.609153 
" clip-path="url(#p43955eb1da)" style="fill: none; stroke: #4c4c4c"/>
   </g>
   <g id="line2d_58">
    <path d="M 429.5386 228.075159 
L 444.6194 228.075159 
" clip-path="url(#p43955eb1da)" style="fill: none; stroke: #4c4c4c; stroke-linecap: round"/>
   </g>
   <g id="line2d_59">
    <path d="M 429.5386 165.609153 
L 444.6194 165.609153 
" clip-path="url(#p43955eb1da)" style="fill: none; stroke: #4c4c4c; stroke-linecap: round"/>
   </g>
   <g id="line2d_60">
    <g clip-path="url(#p43955eb1da)">
     <use xlink:href="#mec5d265361" x="437.079" y="154.47345" style="fill-opacity: 0; stroke: #4c4c4c"/>
     <use xlink:href="#mec5d265361" x="437.079" y="159.003153" style="fill-opacity: 0; stroke: #4c4c4c"/>
     <use xlink:href="#mec5d265361" x="437.079" y="143.778374" style="fill-opacity: 0; stroke: #4c4c4c"/>
     <use xlink:href="#mec5d265361" x="437.079" y="128.02941" style="fill-opacity: 0; stroke: #4c4c4c"/>
     <use xlink:href="#mec5d265361" x="437.079" y="147.928187" style="fill-opacity: 0; stroke: #4c4c4c"/>
     <use xlink:href="#mec5d265361" x="437.079" y="161.090096" style="fill-opacity: 0; stroke: #4c4c4c"/>
     <use xlink:href="#mec5d265361" x="437.079" y="147.199935" style="fill-opacity: 0; stroke: #4c4c4c"/>
    </g>
   </g>
   <g id="patch_15">
    <path d="M 459.7002 190.90684 
L 489.8618 190.90684 
L 489.8618 125.737312 
L 459.7002 125.737312 
L 459.7002 190.90684 
z
" clip-path="url(#p43955eb1da)" style="fill: #5875a4; stroke: #4c4c4c; stroke-linejoin: miter"/>
   </g>
   <g id="line2d_61">
    <path d="M 474.781 190.90684 
L 474.781 221.601052 
" clip-path="url(#p43955eb1da)" style="fill: none; stroke: #4c4c4c"/>
   </g>
   <g id="line2d_62">
    <path d="M 474.781 125.737312 
L 474.781 42.327582 
" clip-path="url(#p43955eb1da)" style="fill: none; stroke: #4c4c4c"/>
   </g>
   <g id="line2d_63">
    <path d="M 467.2406 221.601052 
L 482.3214 221.601052 
" clip-path="url(#p43955eb1da)" style="fill: none; stroke: #4c4c4c; stroke-linecap: round"/>
   </g>
   <g id="line2d_64">
    <path d="M 467.2406 42.327582 
L 482.3214 42.327582 
" clip-path="url(#p43955eb1da)" style="fill: none; stroke: #4c4c4c; stroke-linecap: round"/>
   </g>
   <g id="line2d_65">
    <g clip-path="url(#p43955eb1da)">
     <use xlink:href="#mec5d265361" x="474.781" y="27.889273" style="fill-opacity: 0; stroke: #4c4c4c"/>
    </g>
   </g>
   <g id="line2d_66">
    <path d="M 44.9782 210.517501 
L 75.1398 210.517501 
" clip-path="url(#p43955eb1da)" style="fill: none; stroke: #4c4c4c"/>
   </g>
   <g id="line2d_67">
    <path d="M 82.6802 212.227196 
L 112.8418 212.227196 
" clip-path="url(#p43955eb1da)" style="fill: none; stroke: #4c4c4c"/>
   </g>
   <g id="line2d_68">
    <path d="M 120.3822 211.344794 
L 150.5438 211.344794 
" clip-path="url(#p43955eb1da)" style="fill: none; stroke: #4c4c4c"/>
   </g>
   <g id="line2d_69">
    <path d="M 158.0842 161.572207 
L 188.2458 161.572207 
" clip-path="url(#p43955eb1da)" style="fill: none; stroke: #4c4c4c"/>
   </g>
   <g id="line2d_70">
    <path d="M 195.7862 197.410971 
L 225.9478 197.410971 
" clip-path="url(#p43955eb1da)" style="fill: none; stroke: #4c4c4c"/>
   </g>
   <g id="line2d_71">
    <path d="M 233.4882 187.154433 
L 263.6498 187.154433 
" clip-path="url(#p43955eb1da)" style="fill: none; stroke: #4c4c4c"/>
   </g>
   <g id="line2d_72">
    <path d="M 271.1902 197.233946 
L 301.3518 197.233946 
" clip-path="url(#p43955eb1da)" style="fill: none; stroke: #4c4c4c"/>
   </g>
   <g id="line2d_73">
    <path d="M 308.8922 106.058781 
L 339.0538 106.058781 
" clip-path="url(#p43955eb1da)" style="fill: none; stroke: #4c4c4c"/>
   </g>
   <g id="line2d_74">
    <path d="M 346.5942 208.621613 
L 376.7558 208.621613 
" clip-path="url(#p43955eb1da)" style="fill: none; stroke: #4c4c4c"/>
   </g>
   <g id="line2d_75">
    <path d="M 384.2962 211.0973 
L 414.4578 211.0973 
" clip-path="url(#p43955eb1da)" style="fill: none; stroke: #4c4c4c"/>
   </g>
   <g id="line2d_76">
    <path d="M 421.9982 209.744744 
L 452.1598 209.744744 
" clip-path="url(#p43955eb1da)" style="fill: none; stroke: #4c4c4c"/>
   </g>
   <g id="line2d_77">
    <path d="M 459.7002 157.381639 
L 489.8618 157.381639 
" clip-path="url(#p43955eb1da)" style="fill: none; stroke: #4c4c4c"/>
   </g>
   <g id="patch_16">
    <path d="M 41.208 241.14 
L 41.208 10.368 
" style="fill: none; stroke: #ffffff; stroke-linejoin: miter; stroke-linecap: square"/>
   </g>
   <g id="patch_17">
    <path d="M 493.632 241.14 
L 493.632 10.368 
" style="fill: none; stroke: #ffffff; stroke-linejoin: miter; stroke-linecap: square"/>
   </g>
   <g id="patch_18">
    <path d="M 41.208 241.14 
L 493.632 241.14 
" style="fill: none; stroke: #ffffff; stroke-linejoin: miter; stroke-linecap: square"/>
   </g>
   <g id="patch_19">
    <path d="M 41.208 10.368 
L 493.632 10.368 
" style="fill: none; stroke: #ffffff; stroke-linejoin: miter; stroke-linecap: square"/>
   </g>
  </g>
 </g>
 <defs>
  <clipPath id="p43955eb1da">
   <rect x="41.208" y="10.368" width="452.424" height="230.772"/>
  </clipPath>
 </defs>
</svg>
