<?xml version="1.0" encoding="utf-8" standalone="no"?>
<!DOCTYPE svg PUBLIC "-//W3C//DTD SVG 1.1//EN"
  "http://www.w3.org/Graphics/SVG/1.1/DTD/svg11.dtd">
<svg xmlns:xlink="http://www.w3.org/1999/xlink" width="460.8pt" height="345.6pt" viewBox="0 0 460.8 345.6" xmlns="http://www.w3.org/2000/svg" version="1.1">
 <metadata>
  <rdf:RDF xmlns:dc="http://purl.org/dc/elements/1.1/" xmlns:cc="http://creativecommons.org/ns#" xmlns:rdf="http://www.w3.org/1999/02/22-rdf-syntax-ns#">
   <cc:Work>
    <dc:type rdf:resource="http://purl.org/dc/dcmitype/StillImage"/>
    <dc:date>2024-08-19T14:33:30.129549</dc:date>
    <dc:format>image/svg+xml</dc:format>
    <dc:creator>
     <cc:Agent>
      <dc:title>Matplotlib v3.8.4, https://matplotlib.org/</dc:title>
     </cc:Agent>
    </dc:creator>
   </cc:Work>
  </rdf:RDF>
 </metadata>
 <defs>
  <style type="text/css">*{stroke-linejoin: round; stroke-linecap: butt}</style>
 </defs>
 <g id="figure_1">
  <g id="patch_1">
   <path d="M 0 345.6 
L 460.8 345.6 
L 460.8 0 
L 0 0 
z
" style="fill: #ffffff"/>
  </g>
  <g id="axes_1">
   <g id="patch_2">
    <path d="M 46.158 139.054125 
L 450.432 139.054125 
L 450.432 22.848 
L 46.158 22.848 
z
" style="fill: #eaeaf2"/>
   </g>
   <g id="matplotlib.axis_1">
    <g id="xtick_1">
     <g id="line2d_1">
      <path d="M 64.534091 139.054125 
L 64.534091 22.848 
" clip-path="url(#p430c567a4b)" style="fill: none; stroke: #ffffff; stroke-width: 0.8; stroke-linecap: round"/>
     </g>
     <g id="text_1">
      <!-- 0 -->
      <g style="fill: #262626" transform="translate(62.087278 153.653) scale(0.088 -0.088)">
       <defs>
        <path id="ArialMT-30" d="M 266 2259 
Q 266 3072 433 3567 
Q 600 4063 929 4331 
Q 1259 4600 1759 4600 
Q 2128 4600 2406 4451 
Q 2684 4303 2865 4023 
Q 3047 3744 3150 3342 
Q 3253 2941 3253 2259 
Q 3253 1453 3087 958 
Q 2922 463 2592 192 
Q 2263 -78 1759 -78 
Q 1097 -78 719 397 
Q 266 969 266 2259 
z
M 844 2259 
Q 844 1131 1108 757 
Q 1372 384 1759 384 
Q 2147 384 2411 759 
Q 2675 1134 2675 2259 
Q 2675 3391 2411 3762 
Q 2147 4134 1753 4134 
Q 1366 4134 1134 3806 
Q 844 3388 844 2259 
z
" transform="scale(0.015625)"/>
       </defs>
       <use xlink:href="#ArialMT-30"/>
      </g>
     </g>
    </g>
    <g id="xtick_2">
     <g id="line2d_2">
      <path d="M 129.712045 139.054125 
L 129.712045 22.848 
" clip-path="url(#p430c567a4b)" style="fill: none; stroke: #ffffff; stroke-width: 0.8; stroke-linecap: round"/>
     </g>
     <g id="text_2">
      <!-- 10 -->
      <g style="fill: #262626" transform="translate(124.81842 153.653) scale(0.088 -0.088)">
       <defs>
        <path id="ArialMT-31" d="M 2384 0 
L 1822 0 
L 1822 3584 
Q 1619 3391 1289 3197 
Q 959 3003 697 2906 
L 697 3450 
Q 1169 3672 1522 3987 
Q 1875 4303 2022 4600 
L 2384 4600 
L 2384 0 
z
" transform="scale(0.015625)"/>
       </defs>
       <use xlink:href="#ArialMT-31"/>
       <use xlink:href="#ArialMT-30" x="55.615234"/>
      </g>
     </g>
    </g>
    <g id="xtick_3">
     <g id="line2d_3">
      <path d="M 194.889999 139.054125 
L 194.889999 22.848 
" clip-path="url(#p430c567a4b)" style="fill: none; stroke: #ffffff; stroke-width: 0.8; stroke-linecap: round"/>
     </g>
     <g id="text_3">
      <!-- 20 -->
      <g style="fill: #262626" transform="translate(189.996374 153.653) scale(0.088 -0.088)">
       <defs>
        <path id="ArialMT-32" d="M 3222 541 
L 3222 0 
L 194 0 
Q 188 203 259 391 
Q 375 700 629 1000 
Q 884 1300 1366 1694 
Q 2113 2306 2375 2664 
Q 2638 3022 2638 3341 
Q 2638 3675 2398 3904 
Q 2159 4134 1775 4134 
Q 1369 4134 1125 3890 
Q 881 3647 878 3216 
L 300 3275 
Q 359 3922 746 4261 
Q 1134 4600 1788 4600 
Q 2447 4600 2831 4234 
Q 3216 3869 3216 3328 
Q 3216 3053 3103 2787 
Q 2991 2522 2730 2228 
Q 2469 1934 1863 1422 
Q 1356 997 1212 845 
Q 1069 694 975 541 
L 3222 541 
z
" transform="scale(0.015625)"/>
       </defs>
       <use xlink:href="#ArialMT-32"/>
       <use xlink:href="#ArialMT-30" x="55.615234"/>
      </g>
     </g>
    </g>
    <g id="xtick_4">
     <g id="line2d_4">
      <path d="M 260.067953 139.054125 
L 260.067953 22.848 
" clip-path="url(#p430c567a4b)" style="fill: none; stroke: #ffffff; stroke-width: 0.8; stroke-linecap: round"/>
     </g>
     <g id="text_4">
      <!-- 30 -->
      <g style="fill: #262626" transform="translate(255.174328 153.653) scale(0.088 -0.088)">
       <defs>
        <path id="ArialMT-33" d="M 269 1209 
L 831 1284 
Q 928 806 1161 595 
Q 1394 384 1728 384 
Q 2125 384 2398 659 
Q 2672 934 2672 1341 
Q 2672 1728 2419 1979 
Q 2166 2231 1775 2231 
Q 1616 2231 1378 2169 
L 1441 2663 
Q 1497 2656 1531 2656 
Q 1891 2656 2178 2843 
Q 2466 3031 2466 3422 
Q 2466 3731 2256 3934 
Q 2047 4138 1716 4138 
Q 1388 4138 1169 3931 
Q 950 3725 888 3313 
L 325 3413 
Q 428 3978 793 4289 
Q 1159 4600 1703 4600 
Q 2078 4600 2393 4439 
Q 2709 4278 2876 4000 
Q 3044 3722 3044 3409 
Q 3044 3113 2884 2869 
Q 2725 2625 2413 2481 
Q 2819 2388 3044 2092 
Q 3269 1797 3269 1353 
Q 3269 753 2831 336 
Q 2394 -81 1725 -81 
Q 1122 -81 723 278 
Q 325 638 269 1209 
z
" transform="scale(0.015625)"/>
       </defs>
       <use xlink:href="#ArialMT-33"/>
       <use xlink:href="#ArialMT-30" x="55.615234"/>
      </g>
     </g>
    </g>
    <g id="xtick_5">
     <g id="line2d_5">
      <path d="M 325.245906 139.054125 
L 325.245906 22.848 
" clip-path="url(#p430c567a4b)" style="fill: none; stroke: #ffffff; stroke-width: 0.8; stroke-linecap: round"/>
     </g>
     <g id="text_5">
      <!-- 40 -->
      <g style="fill: #262626" transform="translate(320.352281 153.653) scale(0.088 -0.088)">
       <defs>
        <path id="ArialMT-34" d="M 2069 0 
L 2069 1097 
L 81 1097 
L 81 1613 
L 2172 4581 
L 2631 4581 
L 2631 1613 
L 3250 1613 
L 3250 1097 
L 2631 1097 
L 2631 0 
L 2069 0 
z
M 2069 1613 
L 2069 3678 
L 634 1613 
L 2069 1613 
z
" transform="scale(0.015625)"/>
       </defs>
       <use xlink:href="#ArialMT-34"/>
       <use xlink:href="#ArialMT-30" x="55.615234"/>
      </g>
     </g>
    </g>
    <g id="xtick_6">
     <g id="line2d_6">
      <path d="M 390.42386 139.054125 
L 390.42386 22.848 
" clip-path="url(#p430c567a4b)" style="fill: none; stroke: #ffffff; stroke-width: 0.8; stroke-linecap: round"/>
     </g>
     <g id="text_6">
      <!-- 50 -->
      <g style="fill: #262626" transform="translate(385.530235 153.653) scale(0.088 -0.088)">
       <defs>
        <path id="ArialMT-35" d="M 266 1200 
L 856 1250 
Q 922 819 1161 601 
Q 1400 384 1738 384 
Q 2144 384 2425 690 
Q 2706 997 2706 1503 
Q 2706 1984 2436 2262 
Q 2166 2541 1728 2541 
Q 1456 2541 1237 2417 
Q 1019 2294 894 2097 
L 366 2166 
L 809 4519 
L 3088 4519 
L 3088 3981 
L 1259 3981 
L 1013 2750 
Q 1425 3038 1878 3038 
Q 2478 3038 2890 2622 
Q 3303 2206 3303 1553 
Q 3303 931 2941 478 
Q 2500 -78 1738 -78 
Q 1113 -78 717 272 
Q 322 622 266 1200 
z
" transform="scale(0.015625)"/>
       </defs>
       <use xlink:href="#ArialMT-35"/>
       <use xlink:href="#ArialMT-30" x="55.615234"/>
      </g>
     </g>
    </g>
    <g id="text_7">
     <!-- time (s) -->
     <g style="fill: #262626" transform="translate(232.2975 166.3905) scale(0.096 -0.096)">
      <defs>
       <path id="ArialMT-74" d="M 1650 503 
L 1731 6 
Q 1494 -44 1306 -44 
Q 1000 -44 831 53 
Q 663 150 594 308 
Q 525 466 525 972 
L 525 2881 
L 113 2881 
L 113 3319 
L 525 3319 
L 525 4141 
L 1084 4478 
L 1084 3319 
L 1650 3319 
L 1650 2881 
L 1084 2881 
L 1084 941 
Q 1084 700 1114 631 
Q 1144 563 1211 522 
Q 1278 481 1403 481 
Q 1497 481 1650 503 
z
" transform="scale(0.015625)"/>
       <path id="ArialMT-69" d="M 425 3934 
L 425 4581 
L 988 4581 
L 988 3934 
L 425 3934 
z
M 425 0 
L 425 3319 
L 988 3319 
L 988 0 
L 425 0 
z
" transform="scale(0.015625)"/>
       <path id="ArialMT-6d" d="M 422 0 
L 422 3319 
L 925 3319 
L 925 2853 
Q 1081 3097 1340 3245 
Q 1600 3394 1931 3394 
Q 2300 3394 2536 3241 
Q 2772 3088 2869 2813 
Q 3263 3394 3894 3394 
Q 4388 3394 4653 3120 
Q 4919 2847 4919 2278 
L 4919 0 
L 4359 0 
L 4359 2091 
Q 4359 2428 4304 2576 
Q 4250 2725 4106 2815 
Q 3963 2906 3769 2906 
Q 3419 2906 3187 2673 
Q 2956 2441 2956 1928 
L 2956 0 
L 2394 0 
L 2394 2156 
Q 2394 2531 2256 2718 
Q 2119 2906 1806 2906 
Q 1569 2906 1367 2781 
Q 1166 2656 1075 2415 
Q 984 2175 984 1722 
L 984 0 
L 422 0 
z
" transform="scale(0.015625)"/>
       <path id="ArialMT-65" d="M 2694 1069 
L 3275 997 
Q 3138 488 2766 206 
Q 2394 -75 1816 -75 
Q 1088 -75 661 373 
Q 234 822 234 1631 
Q 234 2469 665 2931 
Q 1097 3394 1784 3394 
Q 2450 3394 2872 2941 
Q 3294 2488 3294 1666 
Q 3294 1616 3291 1516 
L 816 1516 
Q 847 969 1125 678 
Q 1403 388 1819 388 
Q 2128 388 2347 550 
Q 2566 713 2694 1069 
z
M 847 1978 
L 2700 1978 
Q 2663 2397 2488 2606 
Q 2219 2931 1791 2931 
Q 1403 2931 1139 2672 
Q 875 2413 847 1978 
z
" transform="scale(0.015625)"/>
       <path id="ArialMT-20" transform="scale(0.015625)"/>
       <path id="ArialMT-28" d="M 1497 -1347 
Q 1031 -759 709 28 
Q 388 816 388 1659 
Q 388 2403 628 3084 
Q 909 3875 1497 4659 
L 1900 4659 
Q 1522 4009 1400 3731 
Q 1209 3300 1100 2831 
Q 966 2247 966 1656 
Q 966 153 1900 -1347 
L 1497 -1347 
z
" transform="scale(0.015625)"/>
       <path id="ArialMT-73" d="M 197 991 
L 753 1078 
Q 800 744 1014 566 
Q 1228 388 1613 388 
Q 2000 388 2187 545 
Q 2375 703 2375 916 
Q 2375 1106 2209 1216 
Q 2094 1291 1634 1406 
Q 1016 1563 777 1677 
Q 538 1791 414 1992 
Q 291 2194 291 2438 
Q 291 2659 392 2848 
Q 494 3038 669 3163 
Q 800 3259 1026 3326 
Q 1253 3394 1513 3394 
Q 1903 3394 2198 3281 
Q 2494 3169 2634 2976 
Q 2775 2784 2828 2463 
L 2278 2388 
Q 2241 2644 2061 2787 
Q 1881 2931 1553 2931 
Q 1166 2931 1000 2803 
Q 834 2675 834 2503 
Q 834 2394 903 2306 
Q 972 2216 1119 2156 
Q 1203 2125 1616 2013 
Q 2213 1853 2448 1751 
Q 2684 1650 2818 1456 
Q 2953 1263 2953 975 
Q 2953 694 2789 445 
Q 2625 197 2315 61 
Q 2006 -75 1616 -75 
Q 969 -75 630 194 
Q 291 463 197 991 
z
" transform="scale(0.015625)"/>
       <path id="ArialMT-29" d="M 791 -1347 
L 388 -1347 
Q 1322 153 1322 1656 
Q 1322 2244 1188 2822 
Q 1081 3291 891 3722 
Q 769 4003 388 4659 
L 791 4659 
Q 1378 3875 1659 3084 
Q 1900 2403 1900 1659 
Q 1900 816 1576 28 
Q 1253 -759 791 -1347 
z
" transform="scale(0.015625)"/>
      </defs>
      <use xlink:href="#ArialMT-74"/>
      <use xlink:href="#ArialMT-69" x="27.783203"/>
      <use xlink:href="#ArialMT-6d" x="50"/>
      <use xlink:href="#ArialMT-65" x="133.300781"/>
      <use xlink:href="#ArialMT-20" x="188.916016"/>
      <use xlink:href="#ArialMT-28" x="216.699219"/>
      <use xlink:href="#ArialMT-73" x="250"/>
      <use xlink:href="#ArialMT-29" x="300"/>
     </g>
    </g>
   </g>
   <g id="matplotlib.axis_2">
    <g id="ytick_1">
     <g id="line2d_7">
      <path d="M 46.158 132.512797 
L 450.432 132.512797 
" clip-path="url(#p430c567a4b)" style="fill: none; stroke: #ffffff; stroke-width: 0.8; stroke-linecap: round"/>
     </g>
     <g id="text_8">
      <!-- 0 -->
      <g style="fill: #262626" transform="translate(32.964375 135.662235) scale(0.088 -0.088)">
       <use xlink:href="#ArialMT-30"/>
      </g>
     </g>
    </g>
    <g id="ytick_2">
     <g id="line2d_8">
      <path d="M 46.158 103.341566 
L 450.432 103.341566 
" clip-path="url(#p430c567a4b)" style="fill: none; stroke: #ffffff; stroke-width: 0.8; stroke-linecap: round"/>
     </g>
     <g id="text_9">
      <!-- 50 -->
      <g style="fill: #262626" transform="translate(28.07075 106.491003) scale(0.088 -0.088)">
       <use xlink:href="#ArialMT-35"/>
       <use xlink:href="#ArialMT-30" x="55.615234"/>
      </g>
     </g>
    </g>
    <g id="ytick_3">
     <g id="line2d_9">
      <path d="M 46.158 74.170334 
L 450.432 74.170334 
" clip-path="url(#p430c567a4b)" style="fill: none; stroke: #ffffff; stroke-width: 0.8; stroke-linecap: round"/>
     </g>
     <g id="text_10">
      <!-- 100 -->
      <g style="fill: #262626" transform="translate(23.177125 77.319772) scale(0.088 -0.088)">
       <use xlink:href="#ArialMT-31"/>
       <use xlink:href="#ArialMT-30" x="55.615234"/>
       <use xlink:href="#ArialMT-30" x="111.230469"/>
      </g>
     </g>
    </g>
    <g id="ytick_4">
     <g id="line2d_10">
      <path d="M 46.158 44.999103 
L 450.432 44.999103 
" clip-path="url(#p430c567a4b)" style="fill: none; stroke: #ffffff; stroke-width: 0.8; stroke-linecap: round"/>
     </g>
     <g id="text_11">
      <!-- 150 -->
      <g style="fill: #262626" transform="translate(23.177125 48.14854) scale(0.088 -0.088)">
       <use xlink:href="#ArialMT-31"/>
       <use xlink:href="#ArialMT-35" x="55.615234"/>
       <use xlink:href="#ArialMT-30" x="111.230469"/>
      </g>
     </g>
    </g>
    <g id="text_12">
     <!-- angle (rad) -->
     <g style="fill: #262626" transform="translate(17.156625 104.161312) rotate(-90) scale(0.096 -0.096)">
      <defs>
       <path id="ArialMT-61" d="M 2588 409 
Q 2275 144 1986 34 
Q 1697 -75 1366 -75 
Q 819 -75 525 192 
Q 231 459 231 875 
Q 231 1119 342 1320 
Q 453 1522 633 1644 
Q 813 1766 1038 1828 
Q 1203 1872 1538 1913 
Q 2219 1994 2541 2106 
Q 2544 2222 2544 2253 
Q 2544 2597 2384 2738 
Q 2169 2928 1744 2928 
Q 1347 2928 1158 2789 
Q 969 2650 878 2297 
L 328 2372 
Q 403 2725 575 2942 
Q 747 3159 1072 3276 
Q 1397 3394 1825 3394 
Q 2250 3394 2515 3294 
Q 2781 3194 2906 3042 
Q 3031 2891 3081 2659 
Q 3109 2516 3109 2141 
L 3109 1391 
Q 3109 606 3145 398 
Q 3181 191 3288 0 
L 2700 0 
Q 2613 175 2588 409 
z
M 2541 1666 
Q 2234 1541 1622 1453 
Q 1275 1403 1131 1340 
Q 988 1278 909 1158 
Q 831 1038 831 891 
Q 831 666 1001 516 
Q 1172 366 1500 366 
Q 1825 366 2078 508 
Q 2331 650 2450 897 
Q 2541 1088 2541 1459 
L 2541 1666 
z
" transform="scale(0.015625)"/>
       <path id="ArialMT-6e" d="M 422 0 
L 422 3319 
L 928 3319 
L 928 2847 
Q 1294 3394 1984 3394 
Q 2284 3394 2536 3286 
Q 2788 3178 2913 3003 
Q 3038 2828 3088 2588 
Q 3119 2431 3119 2041 
L 3119 0 
L 2556 0 
L 2556 2019 
Q 2556 2363 2490 2533 
Q 2425 2703 2258 2804 
Q 2091 2906 1866 2906 
Q 1506 2906 1245 2678 
Q 984 2450 984 1813 
L 984 0 
L 422 0 
z
" transform="scale(0.015625)"/>
       <path id="ArialMT-67" d="M 319 -275 
L 866 -356 
Q 900 -609 1056 -725 
Q 1266 -881 1628 -881 
Q 2019 -881 2231 -725 
Q 2444 -569 2519 -288 
Q 2563 -116 2559 434 
Q 2191 0 1641 0 
Q 956 0 581 494 
Q 206 988 206 1678 
Q 206 2153 378 2554 
Q 550 2956 876 3175 
Q 1203 3394 1644 3394 
Q 2231 3394 2613 2919 
L 2613 3319 
L 3131 3319 
L 3131 450 
Q 3131 -325 2973 -648 
Q 2816 -972 2473 -1159 
Q 2131 -1347 1631 -1347 
Q 1038 -1347 672 -1080 
Q 306 -813 319 -275 
z
M 784 1719 
Q 784 1066 1043 766 
Q 1303 466 1694 466 
Q 2081 466 2343 764 
Q 2606 1063 2606 1700 
Q 2606 2309 2336 2618 
Q 2066 2928 1684 2928 
Q 1309 2928 1046 2623 
Q 784 2319 784 1719 
z
" transform="scale(0.015625)"/>
       <path id="ArialMT-6c" d="M 409 0 
L 409 4581 
L 972 4581 
L 972 0 
L 409 0 
z
" transform="scale(0.015625)"/>
       <path id="ArialMT-72" d="M 416 0 
L 416 3319 
L 922 3319 
L 922 2816 
Q 1116 3169 1280 3281 
Q 1444 3394 1641 3394 
Q 1925 3394 2219 3213 
L 2025 2691 
Q 1819 2813 1613 2813 
Q 1428 2813 1281 2702 
Q 1134 2591 1072 2394 
Q 978 2094 978 1738 
L 978 0 
L 416 0 
z
" transform="scale(0.015625)"/>
       <path id="ArialMT-64" d="M 2575 0 
L 2575 419 
Q 2259 -75 1647 -75 
Q 1250 -75 917 144 
Q 584 363 401 755 
Q 219 1147 219 1656 
Q 219 2153 384 2558 
Q 550 2963 881 3178 
Q 1213 3394 1622 3394 
Q 1922 3394 2156 3267 
Q 2391 3141 2538 2938 
L 2538 4581 
L 3097 4581 
L 3097 0 
L 2575 0 
z
M 797 1656 
Q 797 1019 1065 703 
Q 1334 388 1700 388 
Q 2069 388 2326 689 
Q 2584 991 2584 1609 
Q 2584 2291 2321 2609 
Q 2059 2928 1675 2928 
Q 1300 2928 1048 2622 
Q 797 2316 797 1656 
z
" transform="scale(0.015625)"/>
      </defs>
      <use xlink:href="#ArialMT-61"/>
      <use xlink:href="#ArialMT-6e" x="55.615234"/>
      <use xlink:href="#ArialMT-67" x="111.230469"/>
      <use xlink:href="#ArialMT-6c" x="166.845703"/>
      <use xlink:href="#ArialMT-65" x="189.0625"/>
      <use xlink:href="#ArialMT-20" x="244.677734"/>
      <use xlink:href="#ArialMT-28" x="272.460938"/>
      <use xlink:href="#ArialMT-72" x="305.761719"/>
      <use xlink:href="#ArialMT-61" x="339.0625"/>
      <use xlink:href="#ArialMT-64" x="394.677734"/>
      <use xlink:href="#ArialMT-29" x="450.292969"/>
     </g>
    </g>
   </g>
   <g id="line2d_11">
    <path d="M 64.534091 133.772028 
L 83.353309 127.713598 
L 252.616855 73.473005 
L 257.212246 71.695075 
L 265.308886 68.218789 
L 272.749042 65.10196 
L 278.110331 63.160408 
L 285.003416 60.965102 
L 300.21197 56.251992 
L 303.16615 55.599372 
L 306.448571 55.13901 
L 313.013415 54.271714 
L 315.967594 53.653744 
L 318.921774 52.810757 
L 326.033688 50.412916 
L 329.753766 49.228385 
L 333.036187 48.43725 
L 335.333883 48.099831 
L 337.850406 47.973907 
L 345.618804 47.771066 
L 351.636577 46.952109 
L 354.371928 46.874333 
L 357.216694 47.029283 
L 362.249741 47.373874 
L 364.219194 47.242917 
L 366.298061 46.875712 
L 369.908725 45.955697 
L 375.270013 44.372579 
L 383.913724 41.775426 
L 393.104505 39.071372 
L 397.918723 37.774804 
L 403.49884 36.60885 
L 409.95427 35.163897 
L 413.346105 34.156849 
L 432.055909 28.130097 
L 432.055909 28.130097 
" clip-path="url(#p430c567a4b)" style="fill: none; stroke: #4c72b0; stroke-width: 1.2; stroke-linecap: round"/>
   </g>
   <g id="patch_3">
    <path d="M 46.158 139.054125 
L 46.158 22.848 
" style="fill: none; stroke: #ffffff; stroke-linejoin: miter; stroke-linecap: square"/>
   </g>
   <g id="patch_4">
    <path d="M 450.432 139.054125 
L 450.432 22.848 
" style="fill: none; stroke: #ffffff; stroke-linejoin: miter; stroke-linecap: square"/>
   </g>
   <g id="patch_5">
    <path d="M 46.158 139.054125 
L 450.432 139.054125 
" style="fill: none; stroke: #ffffff; stroke-linejoin: miter; stroke-linecap: square"/>
   </g>
   <g id="patch_6">
    <path d="M 46.158 22.848 
L 450.432 22.848 
" style="fill: none; stroke: #ffffff; stroke-linejoin: miter; stroke-linecap: square"/>
   </g>
   <g id="text_13">
    <!-- Unwrapped disc angle -->
    <g style="fill: #262626" transform="translate(200.802 16.848) scale(0.096 -0.096)">
     <defs>
      <path id="ArialMT-55" d="M 3500 4581 
L 4106 4581 
L 4106 1934 
Q 4106 1244 3950 837 
Q 3794 431 3386 176 
Q 2978 -78 2316 -78 
Q 1672 -78 1262 144 
Q 853 366 678 786 
Q 503 1206 503 1934 
L 503 4581 
L 1109 4581 
L 1109 1938 
Q 1109 1341 1220 1058 
Q 1331 775 1601 622 
Q 1872 469 2263 469 
Q 2931 469 3215 772 
Q 3500 1075 3500 1938 
L 3500 4581 
z
" transform="scale(0.015625)"/>
      <path id="ArialMT-77" d="M 1034 0 
L 19 3319 
L 600 3319 
L 1128 1403 
L 1325 691 
Q 1338 744 1497 1375 
L 2025 3319 
L 2603 3319 
L 3100 1394 
L 3266 759 
L 3456 1400 
L 4025 3319 
L 4572 3319 
L 3534 0 
L 2950 0 
L 2422 1988 
L 2294 2553 
L 1622 0 
L 1034 0 
z
" transform="scale(0.015625)"/>
      <path id="ArialMT-70" d="M 422 -1272 
L 422 3319 
L 934 3319 
L 934 2888 
Q 1116 3141 1344 3267 
Q 1572 3394 1897 3394 
Q 2322 3394 2647 3175 
Q 2972 2956 3137 2557 
Q 3303 2159 3303 1684 
Q 3303 1175 3120 767 
Q 2938 359 2589 142 
Q 2241 -75 1856 -75 
Q 1575 -75 1351 44 
Q 1128 163 984 344 
L 984 -1272 
L 422 -1272 
z
M 931 1641 
Q 931 1000 1190 694 
Q 1450 388 1819 388 
Q 2194 388 2461 705 
Q 2728 1022 2728 1688 
Q 2728 2322 2467 2637 
Q 2206 2953 1844 2953 
Q 1484 2953 1207 2617 
Q 931 2281 931 1641 
z
" transform="scale(0.015625)"/>
      <path id="ArialMT-63" d="M 2588 1216 
L 3141 1144 
Q 3050 572 2676 248 
Q 2303 -75 1759 -75 
Q 1078 -75 664 370 
Q 250 816 250 1647 
Q 250 2184 428 2587 
Q 606 2991 970 3192 
Q 1334 3394 1763 3394 
Q 2303 3394 2647 3120 
Q 2991 2847 3088 2344 
L 2541 2259 
Q 2463 2594 2264 2762 
Q 2066 2931 1784 2931 
Q 1359 2931 1093 2626 
Q 828 2322 828 1663 
Q 828 994 1084 691 
Q 1341 388 1753 388 
Q 2084 388 2306 591 
Q 2528 794 2588 1216 
z
" transform="scale(0.015625)"/>
     </defs>
     <use xlink:href="#ArialMT-55"/>
     <use xlink:href="#ArialMT-6e" x="72.216797"/>
     <use xlink:href="#ArialMT-77" x="127.832031"/>
     <use xlink:href="#ArialMT-72" x="200.048828"/>
     <use xlink:href="#ArialMT-61" x="233.349609"/>
     <use xlink:href="#ArialMT-70" x="288.964844"/>
     <use xlink:href="#ArialMT-70" x="344.580078"/>
     <use xlink:href="#ArialMT-65" x="400.195312"/>
     <use xlink:href="#ArialMT-64" x="455.810547"/>
     <use xlink:href="#ArialMT-20" x="511.425781"/>
     <use xlink:href="#ArialMT-64" x="539.208984"/>
     <use xlink:href="#ArialMT-69" x="594.824219"/>
     <use xlink:href="#ArialMT-73" x="617.041016"/>
     <use xlink:href="#ArialMT-63" x="667.041016"/>
     <use xlink:href="#ArialMT-20" x="717.041016"/>
     <use xlink:href="#ArialMT-61" x="744.824219"/>
     <use xlink:href="#ArialMT-6e" x="800.439453"/>
     <use xlink:href="#ArialMT-67" x="856.054688"/>
     <use xlink:href="#ArialMT-6c" x="911.669922"/>
     <use xlink:href="#ArialMT-65" x="933.886719"/>
    </g>
   </g>
  </g>
  <g id="axes_2">
   <g id="patch_7">
    <path d="M 46.158 306.81075 
L 450.432 306.81075 
L 450.432 190.604625 
L 46.158 190.604625 
z
" style="fill: #eaeaf2"/>
   </g>
   <g id="matplotlib.axis_3">
    <g id="xtick_7">
     <g id="line2d_12">
      <path d="M 64.534091 306.81075 
L 64.534091 190.604625 
" clip-path="url(#p584dc18ab8)" style="fill: none; stroke: #ffffff; stroke-width: 0.8; stroke-linecap: round"/>
     </g>
     <g id="text_14">
      <!-- 0 -->
      <g style="fill: #262626" transform="translate(62.087278 321.409625) scale(0.088 -0.088)">
       <use xlink:href="#ArialMT-30"/>
      </g>
     </g>
    </g>
    <g id="xtick_8">
     <g id="line2d_13">
      <path d="M 129.712045 306.81075 
L 129.712045 190.604625 
" clip-path="url(#p584dc18ab8)" style="fill: none; stroke: #ffffff; stroke-width: 0.8; stroke-linecap: round"/>
     </g>
     <g id="text_15">
      <!-- 10 -->
      <g style="fill: #262626" transform="translate(124.81842 321.409625) scale(0.088 -0.088)">
       <use xlink:href="#ArialMT-31"/>
       <use xlink:href="#ArialMT-30" x="55.615234"/>
      </g>
     </g>
    </g>
    <g id="xtick_9">
     <g id="line2d_14">
      <path d="M 194.889999 306.81075 
L 194.889999 190.604625 
" clip-path="url(#p584dc18ab8)" style="fill: none; stroke: #ffffff; stroke-width: 0.8; stroke-linecap: round"/>
     </g>
     <g id="text_16">
      <!-- 20 -->
      <g style="fill: #262626" transform="translate(189.996374 321.409625) scale(0.088 -0.088)">
       <use xlink:href="#ArialMT-32"/>
       <use xlink:href="#ArialMT-30" x="55.615234"/>
      </g>
     </g>
    </g>
    <g id="xtick_10">
     <g id="line2d_15">
      <path d="M 260.067953 306.81075 
L 260.067953 190.604625 
" clip-path="url(#p584dc18ab8)" style="fill: none; stroke: #ffffff; stroke-width: 0.8; stroke-linecap: round"/>
     </g>
     <g id="text_17">
      <!-- 30 -->
      <g style="fill: #262626" transform="translate(255.174328 321.409625) scale(0.088 -0.088)">
       <use xlink:href="#ArialMT-33"/>
       <use xlink:href="#ArialMT-30" x="55.615234"/>
      </g>
     </g>
    </g>
    <g id="xtick_11">
     <g id="line2d_16">
      <path d="M 325.245906 306.81075 
L 325.245906 190.604625 
" clip-path="url(#p584dc18ab8)" style="fill: none; stroke: #ffffff; stroke-width: 0.8; stroke-linecap: round"/>
     </g>
     <g id="text_18">
      <!-- 40 -->
      <g style="fill: #262626" transform="translate(320.352281 321.409625) scale(0.088 -0.088)">
       <use xlink:href="#ArialMT-34"/>
       <use xlink:href="#ArialMT-30" x="55.615234"/>
      </g>
     </g>
    </g>
    <g id="xtick_12">
     <g id="line2d_17">
      <path d="M 390.42386 306.81075 
L 390.42386 190.604625 
" clip-path="url(#p584dc18ab8)" style="fill: none; stroke: #ffffff; stroke-width: 0.8; stroke-linecap: round"/>
     </g>
     <g id="text_19">
      <!-- 50 -->
      <g style="fill: #262626" transform="translate(385.530235 321.409625) scale(0.088 -0.088)">
       <use xlink:href="#ArialMT-35"/>
       <use xlink:href="#ArialMT-30" x="55.615234"/>
      </g>
     </g>
    </g>
    <g id="text_20">
     <!-- time (s) -->
     <g style="fill: #262626" transform="translate(232.2975 334.147125) scale(0.096 -0.096)">
      <use xlink:href="#ArialMT-74"/>
      <use xlink:href="#ArialMT-69" x="27.783203"/>
      <use xlink:href="#ArialMT-6d" x="50"/>
      <use xlink:href="#ArialMT-65" x="133.300781"/>
      <use xlink:href="#ArialMT-20" x="188.916016"/>
      <use xlink:href="#ArialMT-28" x="216.699219"/>
      <use xlink:href="#ArialMT-73" x="250"/>
      <use xlink:href="#ArialMT-29" x="300"/>
     </g>
    </g>
   </g>
   <g id="matplotlib.axis_4">
    <g id="ytick_5">
     <g id="line2d_18">
      <path d="M 46.158 282.36318 
L 450.432 282.36318 
" clip-path="url(#p584dc18ab8)" style="fill: none; stroke: #ffffff; stroke-width: 0.8; stroke-linecap: round"/>
     </g>
     <g id="text_21">
      <!-- 0 -->
      <g style="fill: #262626" transform="translate(32.964375 285.512618) scale(0.088 -0.088)">
       <use xlink:href="#ArialMT-30"/>
      </g>
     </g>
    </g>
    <g id="ytick_6">
     <g id="line2d_19">
      <path d="M 46.158 245.180254 
L 450.432 245.180254 
" clip-path="url(#p584dc18ab8)" style="fill: none; stroke: #ffffff; stroke-width: 0.8; stroke-linecap: round"/>
     </g>
     <g id="text_22">
      <!-- 20 -->
      <g style="fill: #262626" transform="translate(28.07075 248.329692) scale(0.088 -0.088)">
       <use xlink:href="#ArialMT-32"/>
       <use xlink:href="#ArialMT-30" x="55.615234"/>
      </g>
     </g>
    </g>
    <g id="ytick_7">
     <g id="line2d_20">
      <path d="M 46.158 207.997328 
L 450.432 207.997328 
" clip-path="url(#p584dc18ab8)" style="fill: none; stroke: #ffffff; stroke-width: 0.8; stroke-linecap: round"/>
     </g>
     <g id="text_23">
      <!-- 40 -->
      <g style="fill: #262626" transform="translate(28.07075 211.146765) scale(0.088 -0.088)">
       <use xlink:href="#ArialMT-34"/>
       <use xlink:href="#ArialMT-30" x="55.615234"/>
      </g>
     </g>
    </g>
    <g id="text_24">
     <!-- angular velocity (rpm) -->
     <g style="fill: #262626" transform="translate(22.05025 294.852937) rotate(-90) scale(0.096 -0.096)">
      <defs>
       <path id="ArialMT-75" d="M 2597 0 
L 2597 488 
Q 2209 -75 1544 -75 
Q 1250 -75 995 37 
Q 741 150 617 320 
Q 494 491 444 738 
Q 409 903 409 1263 
L 409 3319 
L 972 3319 
L 972 1478 
Q 972 1038 1006 884 
Q 1059 663 1231 536 
Q 1403 409 1656 409 
Q 1909 409 2131 539 
Q 2353 669 2445 892 
Q 2538 1116 2538 1541 
L 2538 3319 
L 3100 3319 
L 3100 0 
L 2597 0 
z
" transform="scale(0.015625)"/>
       <path id="ArialMT-76" d="M 1344 0 
L 81 3319 
L 675 3319 
L 1388 1331 
Q 1503 1009 1600 663 
Q 1675 925 1809 1294 
L 2547 3319 
L 3125 3319 
L 1869 0 
L 1344 0 
z
" transform="scale(0.015625)"/>
       <path id="ArialMT-6f" d="M 213 1659 
Q 213 2581 725 3025 
Q 1153 3394 1769 3394 
Q 2453 3394 2887 2945 
Q 3322 2497 3322 1706 
Q 3322 1066 3130 698 
Q 2938 331 2570 128 
Q 2203 -75 1769 -75 
Q 1072 -75 642 372 
Q 213 819 213 1659 
z
M 791 1659 
Q 791 1022 1069 705 
Q 1347 388 1769 388 
Q 2188 388 2466 706 
Q 2744 1025 2744 1678 
Q 2744 2294 2464 2611 
Q 2184 2928 1769 2928 
Q 1347 2928 1069 2612 
Q 791 2297 791 1659 
z
" transform="scale(0.015625)"/>
       <path id="ArialMT-79" d="M 397 -1278 
L 334 -750 
Q 519 -800 656 -800 
Q 844 -800 956 -737 
Q 1069 -675 1141 -563 
Q 1194 -478 1313 -144 
Q 1328 -97 1363 -6 
L 103 3319 
L 709 3319 
L 1400 1397 
Q 1534 1031 1641 628 
Q 1738 1016 1872 1384 
L 2581 3319 
L 3144 3319 
L 1881 -56 
Q 1678 -603 1566 -809 
Q 1416 -1088 1222 -1217 
Q 1028 -1347 759 -1347 
Q 597 -1347 397 -1278 
z
" transform="scale(0.015625)"/>
      </defs>
      <use xlink:href="#ArialMT-61"/>
      <use xlink:href="#ArialMT-6e" x="55.615234"/>
      <use xlink:href="#ArialMT-67" x="111.230469"/>
      <use xlink:href="#ArialMT-75" x="166.845703"/>
      <use xlink:href="#ArialMT-6c" x="222.460938"/>
      <use xlink:href="#ArialMT-61" x="244.677734"/>
      <use xlink:href="#ArialMT-72" x="300.292969"/>
      <use xlink:href="#ArialMT-20" x="333.59375"/>
      <use xlink:href="#ArialMT-76" x="361.376953"/>
      <use xlink:href="#ArialMT-65" x="411.376953"/>
      <use xlink:href="#ArialMT-6c" x="466.992188"/>
      <use xlink:href="#ArialMT-6f" x="489.208984"/>
      <use xlink:href="#ArialMT-63" x="544.824219"/>
      <use xlink:href="#ArialMT-69" x="594.824219"/>
      <use xlink:href="#ArialMT-74" x="617.041016"/>
      <use xlink:href="#ArialMT-79" x="644.824219"/>
      <use xlink:href="#ArialMT-20" x="694.824219"/>
      <use xlink:href="#ArialMT-28" x="722.607422"/>
      <use xlink:href="#ArialMT-72" x="755.908203"/>
      <use xlink:href="#ArialMT-70" x="789.208984"/>
      <use xlink:href="#ArialMT-6d" x="844.824219"/>
      <use xlink:href="#ArialMT-29" x="928.125"/>
     </g>
    </g>
   </g>
   <g id="line2d_21">
    <path d="M 64.534091 217.268455 
L 66.9412 218.115099 
L 69.457723 218.757271 
L 71.755419 219.101881 
L 72.521317 219.168668 
L 72.740145 218.53195 
L 73.068387 219.627767 
L 73.287215 219.883572 
L 73.506044 219.833513 
L 73.834286 219.389499 
L 75.366083 216.628031 
L 75.694325 216.641972 
L 76.022567 216.934563 
L 76.460223 217.666377 
L 77.226122 219.075293 
L 77.44495 219.195191 
L 77.663778 218.961161 
L 77.882606 218.362407 
L 77.99202 217.876208 
L 78.101434 218.043856 
L 78.320262 218.527851 
L 79.195575 218.789162 
L 79.852059 218.920688 
L 82.915653 219.053605 
L 83.462723 218.893887 
L 84.338035 218.642846 
L 88.167527 218.225635 
L 88.824012 218.319948 
L 90.246394 218.478225 
L 90.902879 218.685422 
L 91.559363 218.855554 
L 92.653504 218.919205 
L 95.060613 218.946352 
L 95.935925 218.800025 
L 96.701824 218.830938 
L 98.014792 218.63816 
L 98.890105 218.560155 
L 99.546589 218.619179 
L 100.312488 218.640582 
L 100.968972 218.617716 
L 102.281941 218.931827 
L 103.157253 219.089006 
L 104.798464 219.261598 
L 105.564362 219.326517 
L 108.73737 218.614835 
L 109.722097 218.288287 
L 111.035065 218.370973 
L 111.910378 218.509809 
L 113.879831 218.730509 
L 115.302213 218.981287 
L 117.162252 219.272118 
L 120.225846 218.774277 
L 121.976471 218.361862 
L 125.368307 219.056035 
L 126.134205 219.192097 
L 128.760142 219.220889 
L 129.416627 219.005307 
L 130.182525 218.868959 
L 131.495494 218.855126 
L 134.121431 218.577884 
L 134.88733 218.594978 
L 135.98147 218.866038 
L 137.294439 219.139854 
L 138.826236 219.181611 
L 139.592134 219.413476 
L 140.795689 219.16391 
L 141.452173 218.905437 
L 142.218072 218.83692 
L 143.53104 218.619194 
L 144.406353 218.424613 
L 147.251118 218.774097 
L 148.782915 219.073389 
L 150.205298 219.187453 
L 151.299438 219.446515 
L 152.393579 219.17448 
L 153.268891 219.079529 
L 154.253618 219.005631 
L 154.910102 218.773171 
L 155.238344 218.680051 
L 156.113657 218.639566 
L 158.739594 218.842029 
L 159.943149 219.177542 
L 161.58436 219.252768 
L 162.569086 219.392381 
L 163.663227 218.999843 
L 164.319711 218.760809 
L 164.976195 218.778443 
L 166.070336 218.759021 
L 167.930375 218.544082 
L 168.805687 218.694709 
L 169.790414 218.60092 
L 170.665726 218.855732 
L 171.759867 219.139959 
L 173.401078 219.17318 
L 174.166976 219.35297 
L 175.042289 219.210192 
L 175.698773 218.913042 
L 176.245843 218.834461 
L 177.339984 218.886381 
L 179.418851 218.517868 
L 180.622406 218.750383 
L 181.607132 218.803029 
L 182.810687 219.201882 
L 184.014241 219.102717 
L 184.561312 219.115007 
L 186.093108 219.404028 
L 186.749593 219.204164 
L 187.515491 219.018224 
L 188.609632 218.966346 
L 190.907327 218.553993 
L 192.001468 218.612147 
L 192.657952 218.654944 
L 193.861507 218.994737 
L 194.955647 219.142954 
L 195.940374 219.09154 
L 197.362756 219.302398 
L 198.128655 219.16815 
L 199.113381 218.856426 
L 200.645178 218.829721 
L 202.176975 218.529361 
L 202.942873 218.637239 
L 203.489944 218.683978 
L 204.365256 218.696925 
L 206.881779 219.126321 
L 207.97592 219.290814 
L 208.52299 219.390167 
L 209.288889 219.348814 
L 209.835959 219.216784 
L 210.492443 219.071702 
L 211.367756 219.001317 
L 212.352482 218.667722 
L 213.227795 218.479221 
L 216.510216 218.812666 
L 217.713771 219.184688 
L 219.57381 219.235252 
L 220.667951 219.237936 
L 222.309161 218.814237 
L 223.731544 218.670334 
L 224.606857 218.451964 
L 225.700997 218.566121 
L 226.685724 218.674618 
L 228.326935 218.999501 
L 228.983419 219.179415 
L 230.405802 219.225123 
L 231.062286 219.369288 
L 232.156427 219.195757 
L 233.469395 218.84512 
L 234.344708 218.923267 
L 235.329434 218.664561 
L 235.876505 218.51981 
L 236.532989 218.554507 
L 242.331934 219.461288 
L 244.082559 220.564166 
L 244.629629 220.650046 
L 245.395527 220.454943 
L 246.161426 219.995253 
L 246.81791 219.313309 
L 248.021465 217.937249 
L 248.677949 217.126634 
L 250.31916 215.030841 
L 251.632129 213.125439 
L 252.616855 210.831387 
L 253.82041 208.151376 
L 255.352207 204.694474 
L 256.446347 201.750355 
L 257.431074 199.836807 
L 258.4158 198.508585 
L 259.619355 197.449917 
L 260.275839 197.1402 
L 260.713495 196.885409 
L 261.36998 196.633397 
L 262.792363 196.3127 
L 264.214745 196.355089 
L 265.4183 196.187136 
L 266.293612 195.886722 
L 267.059511 196.01936 
L 267.715995 196.51988 
L 268.372479 197.33396 
L 269.138378 198.656722 
L 270.341933 201.044857 
L 272.639628 205.656001 
L 273.296112 206.668041 
L 274.718495 209.463431 
L 276.031464 211.849476 
L 277.453846 214.136302 
L 278.219745 215.743703 
L 279.97037 218.856587 
L 280.736268 219.733975 
L 281.502166 220.279815 
L 281.939823 220.359529 
L 282.377479 220.339381 
L 283.143377 220.178166 
L 285.222244 219.302186 
L 286.316385 218.667516 
L 287.51994 218.29853 
L 288.176424 218.135893 
L 289.051736 217.732247 
L 289.927049 217.592414 
L 290.802361 217.867241 
L 291.56826 218.254537 
L 293.647127 219.583548 
L 295.069509 221.036784 
L 296.054236 222.420077 
L 297.476619 224.8222 
L 298.570759 226.938808 
L 299.446072 229.016438 
L 300.102556 230.968948 
L 300.868454 234.076412 
L 301.634353 238.204963 
L 304.041462 252.260691 
L 304.916775 255.827583 
L 305.573259 257.690014 
L 306.229743 258.893559 
L 306.886228 259.575986 
L 307.323884 259.834986 
L 307.76154 259.86942 
L 308.199196 259.659097 
L 308.636853 259.142968 
L 309.183923 258.312781 
L 310.606306 255.148933 
L 311.591032 252.667585 
L 312.466345 249.812038 
L 313.451071 245.634445 
L 315.31111 236.652045 
L 316.842907 228.353475 
L 318.155876 221.945518 
L 319.250016 217.680586 
L 319.9065 215.825499 
L 320.453571 214.937653 
L 320.781813 214.740997 
L 321.110055 214.756811 
L 321.547711 214.996741 
L 323.40775 216.610507 
L 323.735992 216.479982 
L 324.064235 216.152149 
L 324.501891 215.344171 
L 325.705445 212.867669 
L 326.033688 212.631578 
L 326.252516 212.706498 
L 326.580758 213.171631 
L 326.909 214.115762 
L 327.45607 216.566608 
L 329.534937 227.298957 
L 331.613805 235.271566 
L 332.379703 239.494662 
L 333.364429 246.550953 
L 334.567984 257.084541 
L 335.990367 269.180882 
L 336.865679 274.916949 
L 337.850406 279.559402 
L 338.944546 283.592453 
L 339.710445 285.641336 
L 340.148101 286.426937 
L 340.476343 286.728502 
L 340.695171 286.684776 
L 340.913999 286.481479 
L 341.242242 285.811232 
L 341.679898 284.338968 
L 342.226968 281.444003 
L 342.883452 276.724656 
L 343.977593 267.18167 
L 345.618804 252.14857 
L 346.165874 248.873793 
L 346.494116 247.985598 
L 346.712944 247.819325 
L 346.931773 247.93213 
L 347.260015 248.637083 
L 347.697671 250.34205 
L 349.667124 258.841013 
L 350.651851 262.932889 
L 351.417749 267.191045 
L 353.277788 278.314595 
L 353.496616 279.743008 
L 354.1531 284.21625 
L 356.231967 295.872947 
L 356.997866 299.300291 
L 357.544936 300.954765 
L 357.873178 301.4702 
L 358.092006 301.522967 
L 358.310835 301.314364 
L 358.529663 300.796065 
L 358.748491 300.391515 
L 358.857905 300.525403 
L 359.404975 299.438654 
L 359.952045 297.641712 
L 360.499116 295.044571 
L 361.1556 290.643734 
L 361.812084 284.796137 
L 362.906225 272.471608 
L 364.985092 249.12824 
L 366.079233 239.45587 
L 366.626303 235.619447 
L 367.173373 233.356161 
L 367.720443 232.012312 
L 370.346381 227.252473 
L 370.784037 226.781663 
L 371.002865 226.709586 
L 371.221693 226.820825 
L 372.425248 224.807896 
L 373.081732 223.001574 
L 373.847631 220.709793 
L 374.394701 219.597506 
L 374.722943 219.400133 
L 375.051185 219.466563 
L 375.270013 220.0174 
L 375.488842 219.723178 
L 375.70767 219.701901 
L 376.035912 220.021976 
L 376.473568 220.901166 
L 378.114779 224.766969 
L 378.443021 224.897361 
L 378.771263 224.800147 
L 379.099505 224.44707 
L 379.865404 223.46491 
L 380.193646 223.48007 
L 380.412474 223.739522 
L 380.521888 223.996411 
L 381.287787 223.184608 
L 382.819583 222.13495 
L 383.913724 221.938173 
L 384.89845 222.206878 
L 385.445521 222.716574 
L 386.430247 223.615942 
L 387.414974 224.27337 
L 388.071458 224.805765 
L 388.618528 225.129506 
L 389.603255 225.213226 
L 391.572708 224.388997 
L 392.557434 224.150784 
L 393.323333 224.072242 
L 393.760989 224.270422 
L 393.979817 224.539102 
L 394.198645 224.592369 
L 394.526887 225.068187 
L 394.964544 226.281017 
L 396.168098 231.009153 
L 397.262239 235.041888 
L 398.575208 238.885716 
L 399.341106 240.660607 
L 399.559934 240.826922 
L 400.544661 241.682853 
L 401.310559 242.059165 
L 401.857629 242.018591 
L 404.702395 240.705928 
L 405.358879 240.415643 
L 405.905949 240.135701 
L 406.45302 239.592454 
L 407.109504 238.438759 
L 408.313059 235.526322 
L 409.297785 232.691707 
L 409.95427 230.108164 
L 411.59548 223.209435 
L 413.455519 217.274008 
L 414.00259 216.178365 
L 414.440246 215.721966 
L 414.768488 215.612237 
L 415.315558 215.976262 
L 415.862629 216.444832 
L 416.519113 217.694973 
L 417.175597 218.4861 
L 417.722668 218.811094 
L 418.269738 218.936843 
L 418.488566 219.57468 
L 418.816808 218.501816 
L 419.035636 218.270633 
L 419.254464 218.332428 
L 419.582707 218.790838 
L 420.895675 221.143747 
L 421.55216 220.969332 
L 421.989816 220.30727 
L 423.083956 218.37231 
L 423.302785 218.413836 
L 423.521613 218.790388 
L 423.740441 219.596058 
L 423.849855 219.414428 
L 424.068683 218.953026 
L 427.788761 218.588879 
L 431.727667 217.974497 
L 432.055909 217.911651 
L 432.055909 217.911651 
" clip-path="url(#p584dc18ab8)" style="fill: none; stroke: #4c72b0; stroke-width: 1.2; stroke-linecap: round"/>
   </g>
   <g id="LineCollection_1">
    <path d="M 64.643505 221.011352 
L 432.055909 221.011352 
" clip-path="url(#p584dc18ab8)" style="fill: none; stroke-dasharray: 4.44,1.92; stroke-dashoffset: 0; stroke: #4c72b0; stroke-width: 1.2"/>
   </g>
   <g id="patch_8">
    <path d="M 46.158 306.81075 
L 46.158 190.604625 
" style="fill: none; stroke: #ffffff; stroke-linejoin: miter; stroke-linecap: square"/>
   </g>
   <g id="patch_9">
    <path d="M 450.432 306.81075 
L 450.432 190.604625 
" style="fill: none; stroke: #ffffff; stroke-linejoin: miter; stroke-linecap: square"/>
   </g>
   <g id="patch_10">
    <path d="M 46.158 306.81075 
L 450.432 306.81075 
" style="fill: none; stroke: #ffffff; stroke-linejoin: miter; stroke-linecap: square"/>
   </g>
   <g id="patch_11">
    <path d="M 46.158 190.604625 
L 450.432 190.604625 
" style="fill: none; stroke: #ffffff; stroke-linejoin: miter; stroke-linecap: square"/>
   </g>
   <g id="text_25">
    <!-- Disc rotation speed -->
    <g style="fill: #262626" transform="translate(207.20925 184.604625) scale(0.096 -0.096)">
     <defs>
      <path id="ArialMT-44" d="M 494 0 
L 494 4581 
L 2072 4581 
Q 2606 4581 2888 4516 
Q 3281 4425 3559 4188 
Q 3922 3881 4101 3404 
Q 4281 2928 4281 2316 
Q 4281 1794 4159 1391 
Q 4038 988 3847 723 
Q 3656 459 3429 307 
Q 3203 156 2883 78 
Q 2563 0 2147 0 
L 494 0 
z
M 1100 541 
L 2078 541 
Q 2531 541 2789 625 
Q 3047 709 3200 863 
Q 3416 1078 3536 1442 
Q 3656 1806 3656 2325 
Q 3656 3044 3420 3430 
Q 3184 3816 2847 3947 
Q 2603 4041 2063 4041 
L 1100 4041 
L 1100 541 
z
" transform="scale(0.015625)"/>
     </defs>
     <use xlink:href="#ArialMT-44"/>
     <use xlink:href="#ArialMT-69" x="72.216797"/>
     <use xlink:href="#ArialMT-73" x="94.433594"/>
     <use xlink:href="#ArialMT-63" x="144.433594"/>
     <use xlink:href="#ArialMT-20" x="194.433594"/>
     <use xlink:href="#ArialMT-72" x="222.216797"/>
     <use xlink:href="#ArialMT-6f" x="255.517578"/>
     <use xlink:href="#ArialMT-74" x="311.132812"/>
     <use xlink:href="#ArialMT-61" x="338.916016"/>
     <use xlink:href="#ArialMT-74" x="394.53125"/>
     <use xlink:href="#ArialMT-69" x="422.314453"/>
     <use xlink:href="#ArialMT-6f" x="444.53125"/>
     <use xlink:href="#ArialMT-6e" x="500.146484"/>
     <use xlink:href="#ArialMT-20" x="555.761719"/>
     <use xlink:href="#ArialMT-73" x="583.544922"/>
     <use xlink:href="#ArialMT-70" x="633.544922"/>
     <use xlink:href="#ArialMT-65" x="689.160156"/>
     <use xlink:href="#ArialMT-65" x="744.775391"/>
     <use xlink:href="#ArialMT-64" x="800.390625"/>
    </g>
   </g>
   <g id="legend_1">
    <g id="patch_12">
     <path d="M 363.780875 210.22175 
L 444.272 210.22175 
Q 446.032 210.22175 446.032 208.46175 
L 446.032 196.764625 
Q 446.032 195.004625 444.272 195.004625 
L 363.780875 195.004625 
Q 362.020875 195.004625 362.020875 196.764625 
L 362.020875 208.46175 
Q 362.020875 210.22175 363.780875 210.22175 
z
" style="fill: #eaeaf2; opacity: 0.8; stroke: #cccccc; stroke-width: 0.8; stroke-linejoin: miter"/>
    </g>
    <g id="line2d_22">
     <path d="M 365.540875 201.769625 
L 383.140875 201.769625 
" style="fill: none; stroke-dasharray: 4.44,1.92; stroke-dashoffset: 0; stroke: #4c72b0; stroke-width: 1.2"/>
    </g>
    <g id="text_26">
     <!-- 33 rpm target -->
     <g style="fill: #262626" transform="translate(390.180875 204.849625) scale(0.088 -0.088)">
      <use xlink:href="#ArialMT-33"/>
      <use xlink:href="#ArialMT-33" x="55.615234"/>
      <use xlink:href="#ArialMT-20" x="111.230469"/>
      <use xlink:href="#ArialMT-72" x="139.013672"/>
      <use xlink:href="#ArialMT-70" x="172.314453"/>
      <use xlink:href="#ArialMT-6d" x="227.929688"/>
      <use xlink:href="#ArialMT-20" x="311.230469"/>
      <use xlink:href="#ArialMT-74" x="339.013672"/>
      <use xlink:href="#ArialMT-61" x="366.796875"/>
      <use xlink:href="#ArialMT-72" x="422.412109"/>
      <use xlink:href="#ArialMT-67" x="455.712891"/>
      <use xlink:href="#ArialMT-65" x="511.328125"/>
      <use xlink:href="#ArialMT-74" x="566.943359"/>
     </g>
    </g>
   </g>
  </g>
 </g>
 <defs>
  <clipPath id="p430c567a4b">
   <rect x="46.158" y="22.848" width="404.274" height="116.206125"/>
  </clipPath>
  <clipPath id="p584dc18ab8">
   <rect x="46.158" y="190.604625" width="404.274" height="116.206125"/>
  </clipPath>
 </defs>
</svg>
